<?xml version="1.0" encoding="UTF-8"?>
<!DOCTYPE svg PUBLIC "-//W3C//DTD SVG 1.1//EN" "http://www.w3.org/Graphics/SVG/1.1/DTD/svg11.dtd">
<!-- Creator: CorelDRAW 2020 (64 Bit) -->
<svg xmlns="http://www.w3.org/2000/svg" xml:space="preserve" width="221px" height="221px" version="1.1" style="shape-rendering:geometricPrecision; text-rendering:geometricPrecision; image-rendering:optimizeQuality; fill-rule:evenodd; clip-rule:evenodd"
viewBox="0 0 16270.283 16270.283"
 xmlns:xlink="http://www.w3.org/1999/xlink"
 xmlns:xodm="http://www.corel.com/coreldraw/odm/2003">
 <defs>
  <style type="text/css">
   <![CDATA[
    .fil0 {fill:#FCA311;fill-rule:nonzero}
   ]]>
  </style>
 </defs>
 <g id="Camada_x0020_1">
  <metadata id="CorelCorpID_0Corel-Layer"/>
  <path class="fil0" d="M8024.627 7600.167c0,-266.603 -100.755,-507.37 -263.568,-681.041 -161.198,-172 -383.701,-278.407 -629.006,-278.407 -245.333,0 -467.781,106.435 -629.007,278.407 -162.813,173.671 -263.568,414.466 -263.568,681.041 0,562.05 213.009,1070.311 557.344,1437.614 342.748,365.605 815.985,591.783 1338.305,591.783 522.349,0 995.558,-226.178 1338.306,-591.783 344.363,-367.331 557.372,-875.564 557.372,-1437.614 0,-857.495 -325.263,-1633.251 -851.148,-2194.186 -524.297,-559.238 -1248.268,-905.187 -2047.604,-905.187 -799.309,0 -1523.28,345.949 -2047.577,905.187 -525.885,560.935 -851.148,1336.663 -851.148,2194.186 0,1152.97 437.573,2196.191 1144.951,2950.759 705.764,752.87 1680.552,1218.563 2756.848,1218.563 1076.324,0 2051.085,-465.693 2756.904,-1218.563 707.379,-754.568 1144.952,-1797.789 1144.952,-2950.759 0,-1448.416 -549.855,-2759.159 -1438.755,-3707.304 -887.341,-946.503 -2112.892,-1531.938 -3466.175,-1531.938 -1353.284,0 -2578.807,585.435 -3466.148,1531.938 -888.9,948.145 -1438.727,2258.888 -1438.727,3707.304 0,1743.89 662.109,3322.1 1732.531,4463.877 1068.862,1140.107 2545.147,1845.314 4175.418,1845.314 1630.272,0 3106.585,-705.207 4175.447,-1845.314 1070.422,-1141.777 1732.531,-2719.987 1732.531,-4463.877 0,-2039.336 -774.391,-3885.067 -2026.334,-5220.478 -1250.385,-1333.711 -2977.431,-2158.689 -4884.718,-2158.689 -1907.26,0 -3634.334,824.978 -4884.719,2158.717 -1251.943,1335.41 -2026.334,3181.114 -2026.334,5220.45 0,2334.81 886.673,4448.008 2320.11,5977.023 1431.907,1527.372 3409.77,2472.093 5594.017,2472.093 2184.276,0 4162.111,-944.721 5594.018,-2472.093 1433.465,-1529.015 2320.138,-3642.213 2320.138,-5977.023l221 0c0,2392.524 -909.781,4559.204 -2380.608,6128.087 -1472.415,1570.581 -3506.962,2542.029 -5754.548,2542.029 -2247.557,0 -4282.132,-971.448 -5754.547,-2542.029 -1470.799,-1568.855 -2380.58,-3735.563 -2380.58,-6128.087 0,-2097.05 797.499,-3996.263 2086.805,-5371.514 1290.892,-1376.976 3074.678,-2228.653 5045.248,-2228.653 1970.597,0 3754.383,851.705 5045.247,2228.625 1289.306,1375.279 2086.805,3274.492 2086.805,5371.542 0,1801.576 -685.217,3433.296 -1793.001,4614.941 -1109.371,1183.316 -2642.395,1915.25 -4335.977,1915.25 -1693.581,0 -3226.577,-731.934 -4335.948,-1915.25 -1107.784,-1181.645 -1793.001,-2813.365 -1793.001,-4614.941 0,-1506.102 572.907,-2870.355 1499.197,-3858.368 927.849,-989.684 2210.112,-1601.874 3626.678,-1601.874 1416.566,0 2698.856,612.19 3626.705,1601.874 926.262,988.013 1499.225,2352.238 1499.225,3858.368 0,1210.684 -460.681,2307.415 -1205.422,3101.823 -746.299,796.079 -1777.8,1288.499 -2917.434,1288.499 -1139.606,0 -2171.078,-492.42 -2917.378,-1288.499 -744.74,-794.408 -1205.421,-1891.139 -1205.421,-3101.823 0,-915.237 348.399,-1744.502 911.618,-2345.25 564.805,-602.447 1345.488,-975.123 2208.107,-975.123 862.646,0 1643.329,372.676 2208.134,975.123 563.219,600.748 911.618,1430.041 911.618,2345.25 0,619.763 -236.117,1181.507 -617.842,1588.678 -383.284,408.814 -913.205,661.719 -1498.836,661.719 -585.602,0 -1115.551,-252.905 -1498.835,-661.719 -381.697,-407.171 -617.814,-968.915 -617.814,-1588.678 0,-324.289 123.863,-618.566 324.038,-832.105 201.762,-215.181 480.922,-348.343 789.537,-348.343 308.642,0 587.802,133.134 789.536,348.343 200.175,213.539 324.038,507.788 324.038,832.105l-221 0z"/>
 </g>
</svg>
