<?xml version="1.0" encoding="UTF-8"?>
<!DOCTYPE svg PUBLIC "-//W3C//DTD SVG 1.1//EN" "http://www.w3.org/Graphics/SVG/1.1/DTD/svg11.dtd">
<!-- Creator: CorelDRAW 2020 (64 Bit) -->
<svg xmlns="http://www.w3.org/2000/svg" xml:space="preserve" width="221px" height="221px" version="1.1" style="shape-rendering:geometricPrecision; text-rendering:geometricPrecision; image-rendering:optimizeQuality; fill-rule:evenodd; clip-rule:evenodd"
viewBox="0 0 16270.283 16270.283"
 xmlns:xlink="http://www.w3.org/1999/xlink"
 xmlns:xodm="http://www.corel.com/coreldraw/odm/2003">
 <defs>
  <style type="text/css">
   <![CDATA[
    .str0 {stroke:#E5E5E5;stroke-width:220.972;stroke-miterlimit:22.9256}
    .fil0 {fill:none}
   ]]>
  </style>
 </defs>
 <g id="Camada_x0020_1">
  <metadata id="CorelCorpID_0Corel-Layer"/>
  <path class="fil0 str0" d="M8135.127 7600.167c0,-590.92 -449.071,-1069.948 -1003.074,-1069.948 -553.976,0 -1003.075,479.028 -1003.075,1069.948 0,1181.841 898.198,2139.897 2006.149,2139.897 1107.979,0 2006.178,-958.056 2006.178,-2139.897 0,-1772.761 -1347.298,-3209.873 -3009.252,-3209.873 -1661.955,0 -3009.225,1437.112 -3009.225,3209.873 0,2363.681 1796.369,4279.822 4012.299,4279.822 2215.958,0 4012.356,-1916.141 4012.356,-4279.822 0,-2954.601 -2245.497,-5349.742 -5015.43,-5349.742 -2769.934,0 -5015.375,2395.141 -5015.375,5349.742 0,3545.494 2694.54,6419.691 6018.449,6419.691 3323.937,0 6018.478,-2874.197 6018.478,-6419.691 0,-4136.414 -3143.64,-7489.667 -7021.552,-7489.667 -3877.885,0 -7021.553,3353.253 -7021.553,7489.667 0,4727.362 3592.767,8559.616 8024.627,8559.616 4431.888,0 8024.656,-3832.254 8024.656,-8559.616"/>
 </g>
</svg>
