<?xml version="1.0" encoding="UTF-8"?>
<!DOCTYPE svg PUBLIC "-//W3C//DTD SVG 1.1//EN" "http://www.w3.org/Graphics/SVG/1.1/DTD/svg11.dtd">
<!-- Creator: CorelDRAW 2020 (64 Bit) -->
<svg xmlns="http://www.w3.org/2000/svg" xml:space="preserve" width="246px" height="105px" version="1.1" style="shape-rendering:geometricPrecision; text-rendering:geometricPrecision; image-rendering:optimizeQuality; fill-rule:evenodd; clip-rule:evenodd"
viewBox="0 0 68.924 29.341"
 xmlns:xlink="http://www.w3.org/1999/xlink"
 xmlns:xodm="http://www.corel.com/coreldraw/odm/2003">
 <defs>
  <style type="text/css">
   <![CDATA[
    .fil0 {fill:#14213D;fill-rule:nonzero}
    .fil1 {fill:#E5E5E5;fill-rule:nonzero}
   ]]>
  </style>
 </defs>
 <g id="Camada_x0020_1">
  <metadata id="CorelCorpID_0Corel-Layer"/>
  <g id="_2129371925792">
   <polygon class="fil0" points="0,11.469 2.65,11.469 2.65,7.068 5.967,7.068 5.967,5.006 2.65,5.006 2.65,2.712 7.083,2.712 7.083,0.589 0,0.589 "/>
   <path id="1" class="fil0" d="M7.951 7.13c0,2.727 1.689,4.463 3.797,4.463 1.287,0 2.201,-0.589 2.682,-1.348l0 1.224 2.65 0 0 -8.648 -2.65 0 0 1.224c-0.465,-0.759 -1.38,-1.348 -2.666,-1.348 -2.124,0 -3.813,1.705 -3.813,4.433zm6.479 0.015c0,1.38 -0.884,2.139 -1.891,2.139 -0.992,0 -1.891,-0.775 -1.891,-2.154 0,-1.38 0.899,-2.124 1.891,-2.124 1.007,0 1.891,0.76 1.891,2.139z"/>
   <polygon id="2" class="fil0" points="19.002,11.469 21.652,11.469 21.652,0 19.002,0 "/>
   <path id="3" class="fil0" d="M27.387 4.82c0.883,0 1.627,0.543 1.627,1.488l-3.317 0c0.155,-0.961 0.822,-1.488 1.69,-1.488zm4.138 3.782l-2.821 0c-0.217,0.465 -0.635,0.837 -1.379,0.837 -0.853,0 -1.55,-0.527 -1.643,-1.658l5.998 0c0.031,-0.264 0.046,-0.527 0.046,-0.775 0,-2.635 -1.782,-4.309 -4.308,-4.309 -2.573,0 -4.371,1.705 -4.371,4.448 0,2.743 1.829,4.448 4.371,4.448 2.154,0 3.688,-1.302 4.107,-2.991z"/>
   <path class="fil1" d="M10.756 20.894c0,2.697 1.721,4.402 4.139,4.402 2.107,0 3.487,-1.178 3.921,-2.868l-1.519 0c-0.31,1.07 -1.147,1.674 -2.402,1.674 -1.55,0 -2.697,-1.1 -2.697,-3.208 0,-2.077 1.147,-3.177 2.697,-3.177 1.255,0 2.107,0.651 2.402,1.674l1.519 0c-0.434,-1.783 -1.814,-2.868 -3.921,-2.868 -2.418,0 -4.139,1.705 -4.139,4.371z"/>
   <path id="1" class="fil1" d="M28.751 20.894c0,-2.681 -1.876,-4.371 -4.293,-4.371 -2.403,0 -4.294,1.69 -4.294,4.371 0,2.697 1.829,4.402 4.232,4.402 2.417,0 4.355,-1.705 4.355,-4.402zm-7.145 0c0,-2.139 1.348,-3.146 2.836,-3.146 1.457,0 2.867,1.007 2.867,3.146 0,2.154 -1.441,3.162 -2.913,3.162 -1.473,0 -2.79,-1.008 -2.79,-3.162z"/>
   <path id="2" class="fil1" d="M42.87 25.156l1.395 0 0 -5.006c0,-2.433 -1.503,-3.642 -3.44,-3.642 -1.302,0 -2.511,0.666 -3.007,1.891 -0.558,-1.271 -1.721,-1.891 -3.116,-1.891 -1.116,0 -2.123,0.48 -2.681,1.379l0 -1.224 -1.41 0 0 8.493 1.41 0 0 -4.681c0,-1.828 0.977,-2.743 2.402,-2.743 1.395,0 2.325,0.884 2.325,2.62l0 4.804 1.395 0 0 -4.681c0,-1.828 0.977,-2.743 2.403,-2.743 1.394,0 2.324,0.884 2.324,2.62l0 4.804z"/>
   <path id="3" class="fil1" d="M46.575 25.156l1.41 0 0 -8.493 -1.41 0 0 8.493zm0.728 -9.873c0.512,0 0.93,-0.418 0.93,-0.961 0,-0.542 -0.418,-0.961 -0.93,-0.961 -0.542,0 -0.961,0.419 -0.961,0.961 0,0.543 0.419,0.961 0.961,0.961z"/>
   <path id="4" class="fil1" d="M49.861 20.878c0,2.635 1.751,4.418 4.029,4.418 1.55,0 2.651,-0.822 3.162,-1.736l0 1.782c0,1.814 -1.131,2.775 -2.635,2.775 -1.395,0 -2.402,-0.698 -2.712,-1.721l-1.395 0c0.279,1.814 1.875,2.945 4.107,2.945 2.496,0 4.061,-1.658 4.061,-3.999l0 -8.679 -1.426 0 0 1.55c-0.496,-0.915 -1.612,-1.69 -3.162,-1.69 -2.278,0 -4.029,1.705 -4.029,4.355zm7.191 0.016c0,1.999 -1.333,3.162 -2.883,3.162 -1.55,0 -2.867,-1.178 -2.867,-3.178 0,-1.999 1.317,-3.13 2.867,-3.13 1.55,0 2.883,1.178 2.883,3.146z"/>
   <path id="5" class="fil1" d="M68.924 20.894c0,-2.681 -1.875,-4.371 -4.293,-4.371 -2.402,0 -4.293,1.69 -4.293,4.371 0,2.697 1.829,4.402 4.231,4.402 2.418,0 4.355,-1.705 4.355,-4.402zm-7.145 0c0,-2.139 1.349,-3.146 2.837,-3.146 1.456,0 2.867,1.007 2.867,3.146 0,2.154 -1.441,3.162 -2.914,3.162 -1.472,0 -2.79,-1.008 -2.79,-3.162z"/>
  </g>
 </g>
</svg>
