<?xml version="1.0" encoding="UTF-8"?>
<!DOCTYPE svg PUBLIC "-//W3C//DTD SVG 1.1//EN" "http://www.w3.org/Graphics/SVG/1.1/DTD/svg11.dtd">
<!-- Creator: CorelDRAW 2020 (64 Bit) -->
<svg xmlns="http://www.w3.org/2000/svg" xml:space="preserve" width="217px" height="29px" version="1.1" style="shape-rendering:geometricPrecision; text-rendering:geometricPrecision; image-rendering:optimizeQuality; fill-rule:evenodd; clip-rule:evenodd"
viewBox="0 0 65.72 8.791"
 xmlns:xlink="http://www.w3.org/1999/xlink"
 xmlns:xodm="http://www.corel.com/coreldraw/odm/2003">
 <defs>
  <style type="text/css">
   <![CDATA[
    .fil0 {fill:#FCA311;fill-rule:nonzero}
   ]]>
  </style>
 </defs>
 <g id="Camada_x0020_1">
  <metadata id="CorelCorpID_0Corel-Layer"/>
  <g id="_2271463847888">
   <path class="fil0" d="M0.411 0.082c0.344,0.318 0.652,0.653 0.952,0.979 0.863,0.937 1.656,1.797 2.924,1.797 0.782,0 1.293,-0.656 1.804,-1.312 0.602,-0.773 1.203,-1.546 2.278,-1.546 1.076,0 1.678,0.773 2.28,1.546 0.51,0.656 1.021,1.312 1.802,1.312 0.782,0 1.293,-0.656 1.803,-1.312 0.602,-0.773 1.204,-1.546 2.279,-1.546 1.076,0 1.678,0.773 2.28,1.546 0.509,0.656 1.02,1.312 1.802,1.312 0.78,0 1.291,-0.656 1.802,-1.312 0.603,-0.773 1.205,-1.546 2.28,-1.546 1.075,0 1.677,0.773 2.279,1.546 0.51,0.656 1.021,1.312 1.802,1.312 0.782,0 1.293,-0.656 1.803,-1.311 0.601,-0.774 1.203,-1.547 2.279,-1.547 1.076,0 1.678,0.773 2.28,1.546 0.51,0.656 1.021,1.312 1.802,1.312 0.782,0 1.293,-0.656 1.803,-1.312 0.602,-0.773 1.204,-1.546 2.279,-1.546 1.076,0 1.678,0.773 2.279,1.546 0.51,0.656 1.021,1.312 1.803,1.312 0.781,0 1.292,-0.656 1.803,-1.311 0.601,-0.774 1.203,-1.547 2.278,-1.547 1.075,0 1.677,0.773 2.279,1.546 0.511,0.656 1.022,1.312 1.803,1.312 0.781,0 1.292,-0.656 1.802,-1.312 0.603,-0.773 1.205,-1.546 2.28,-1.546 1.075,0 1.677,0.773 2.279,1.546 0.512,0.656 1.022,1.312 1.803,1.312 1.268,0 2.061,-0.86 2.924,-1.797 0.3,-0.326 0.609,-0.661 0.952,-0.979l0.411 0.442c-0.325,0.302 -0.626,0.628 -0.918,0.946 -0.958,1.039 -1.837,1.993 -3.369,1.993 -1.076,0 -1.678,-0.773 -2.28,-1.546 -0.51,-0.656 -1.021,-1.312 -1.802,-1.312 -0.781,0 -1.292,0.656 -1.803,1.312 -0.601,0.773 -1.203,1.546 -2.279,1.546 -1.074,0 -1.676,-0.773 -2.278,-1.546 -0.511,-0.656 -1.022,-1.312 -1.804,-1.312 -0.78,0 -1.291,0.656 -1.802,1.312 -0.603,0.773 -1.205,1.546 -2.279,1.546 -1.075,0 -1.677,-0.773 -2.279,-1.546 -0.512,-0.656 -1.023,-1.312 -1.803,-1.312 -0.782,0 -1.293,0.656 -1.803,1.312 -0.602,0.773 -1.204,1.546 -2.279,1.546 -1.075,0 -1.677,-0.773 -2.279,-1.546 -0.511,-0.656 -1.022,-1.312 -1.803,-1.312 -0.78,0 -1.291,0.656 -1.802,1.312 -0.603,0.773 -1.205,1.546 -2.28,1.546 -1.074,0 -1.676,-0.773 -2.278,-1.546 -0.512,-0.656 -1.023,-1.312 -1.803,-1.312 -0.782,0 -1.293,0.656 -1.803,1.312 -0.601,0.773 -1.203,1.546 -2.279,1.546 -1.075,0 -1.677,-0.773 -2.279,-1.546 -0.512,-0.656 -1.023,-1.312 -1.803,-1.312 -0.782,0 -1.293,0.656 -1.803,1.312 -0.602,0.773 -1.204,1.546 -2.279,1.546 -1.075,0 -1.677,-0.773 -2.278,-1.546 -0.512,-0.656 -1.023,-1.312 -1.804,-1.312 -0.781,0 -1.292,0.656 -1.803,1.312 -0.602,0.773 -1.204,1.546 -2.279,1.546 -1.532,0 -2.411,-0.954 -3.368,-1.993 -0.293,-0.318 -0.594,-0.644 -0.919,-0.946l0.411 -0.442z"/>
   <path class="fil0" d="M0.411 5.409c0.344,0.318 0.652,0.653 0.952,0.979 0.863,0.937 1.656,1.798 2.924,1.798 0.782,0 1.293,-0.657 1.804,-1.313 0.602,-0.773 1.203,-1.546 2.278,-1.546 1.076,0 1.678,0.774 2.28,1.546 0.51,0.657 1.021,1.313 1.802,1.313 0.782,0 1.293,-0.657 1.803,-1.313 0.602,-0.773 1.204,-1.546 2.279,-1.546 1.076,0 1.678,0.774 2.28,1.546 0.509,0.657 1.02,1.313 1.802,1.313 0.78,0 1.291,-0.657 1.802,-1.313 0.603,-0.772 1.205,-1.546 2.28,-1.546 1.075,0 1.677,0.774 2.279,1.546 0.51,0.657 1.021,1.313 1.802,1.313 0.782,0 1.293,-0.656 1.803,-1.312 0.601,-0.773 1.203,-1.547 2.279,-1.547 1.076,0 1.678,0.774 2.28,1.546 0.51,0.657 1.021,1.313 1.802,1.313 0.782,0 1.293,-0.657 1.803,-1.313 0.602,-0.773 1.204,-1.546 2.279,-1.546 1.076,0 1.678,0.774 2.279,1.546 0.51,0.657 1.021,1.313 1.803,1.313 0.781,0 1.292,-0.656 1.803,-1.312 0.601,-0.773 1.203,-1.547 2.278,-1.547 1.075,0 1.677,0.773 2.279,1.546 0.511,0.656 1.022,1.313 1.803,1.313 0.781,0 1.292,-0.657 1.802,-1.313 0.603,-0.772 1.205,-1.546 2.28,-1.546 1.075,0 1.677,0.774 2.279,1.546 0.512,0.656 1.022,1.313 1.803,1.313 1.268,0 2.061,-0.861 2.924,-1.798 0.3,-0.326 0.609,-0.661 0.952,-0.979l0.411 0.442c-0.325,0.302 -0.626,0.628 -0.918,0.946 -0.958,1.039 -1.837,1.994 -3.369,1.994 -1.076,0 -1.678,-0.773 -2.28,-1.546 -0.51,-0.657 -1.021,-1.312 -1.802,-1.312 -0.781,0 -1.292,0.655 -1.803,1.311 -0.601,0.774 -1.203,1.547 -2.279,1.547 -1.074,0 -1.676,-0.773 -2.278,-1.546 -0.511,-0.656 -1.022,-1.312 -1.804,-1.312 -0.78,0 -1.291,0.656 -1.802,1.312 -0.603,0.773 -1.205,1.546 -2.279,1.546 -1.075,0 -1.677,-0.773 -2.279,-1.546 -0.512,-0.656 -1.023,-1.312 -1.803,-1.312 -0.782,0 -1.293,0.656 -1.803,1.312 -0.602,0.773 -1.204,1.546 -2.279,1.546 -1.075,0 -1.677,-0.773 -2.279,-1.546 -0.511,-0.656 -1.022,-1.312 -1.803,-1.312 -0.78,0 -1.291,0.656 -1.802,1.312 -0.603,0.773 -1.205,1.546 -2.28,1.546 -1.074,0 -1.676,-0.773 -2.278,-1.546 -0.512,-0.656 -1.023,-1.312 -1.803,-1.312 -0.782,0 -1.293,0.655 -1.803,1.311 -0.601,0.774 -1.203,1.547 -2.279,1.547 -1.075,0 -1.677,-0.773 -2.279,-1.546 -0.512,-0.656 -1.023,-1.312 -1.803,-1.312 -0.782,0 -1.293,0.656 -1.803,1.312 -0.602,0.773 -1.204,1.546 -2.279,1.546 -1.075,0 -1.677,-0.773 -2.278,-1.546 -0.512,-0.656 -1.023,-1.312 -1.804,-1.312 -0.781,0 -1.292,0.656 -1.803,1.312 -0.602,0.773 -1.204,1.546 -2.279,1.546 -1.532,0 -2.411,-0.955 -3.368,-1.994 -0.293,-0.318 -0.594,-0.644 -0.919,-0.946l0.411 -0.442z"/>
  </g>
 </g>
</svg>
