<?xml version="1.0" encoding="UTF-8"?>
<!DOCTYPE svg PUBLIC "-//W3C//DTD SVG 1.1//EN" "http://www.w3.org/Graphics/SVG/1.1/DTD/svg11.dtd">
<!-- Creator: CorelDRAW 2020 (64 Bit) -->
<svg xmlns="http://www.w3.org/2000/svg" xml:space="preserve" width="227px" height="59px" version="1.1" style="shape-rendering:geometricPrecision; text-rendering:geometricPrecision; image-rendering:optimizeQuality; fill-rule:evenodd; clip-rule:evenodd"
viewBox="0 0 58.567 15.26"
 xmlns:xlink="http://www.w3.org/1999/xlink"
 xmlns:xodm="http://www.corel.com/coreldraw/odm/2003">
 <defs>
  <style type="text/css">
   <![CDATA[
    .fil0 {fill:white;fill-rule:nonzero}
   ]]>
  </style>
 </defs>
 <g id="Camada_x0020_1">
  <metadata id="CorelCorpID_0Corel-Layer"/>
  <path class="fil0" d="M2.446 5.907l0 -2.517 1.33 0c0.972,0 1.387,0.486 1.387,1.258 0,0.772 -0.415,1.259 -1.387,1.259l-1.33 0zm5.206 -1.259c0,-1.845 -1.23,-3.232 -3.69,-3.232l-3.962 0 0 10.04 2.446 0 0 -3.604 1.516 0c2.56,0 3.69,-1.545 3.69,-3.204z"/>
  <path id="1" class="fil0" d="M11.37 7.752c0,-1.373 0.672,-1.774 1.831,-1.774l0.672 0 0 -2.588c-1.073,0 -1.945,0.572 -2.503,1.416l0 -1.331 -2.446 0 0 7.981 2.446 0 0 -3.704z"/>
  <path id="2" class="fil0" d="M22.855 7.466c0,-2.532 -1.802,-4.105 -4.148,-4.105 -2.331,0 -4.148,1.573 -4.148,4.105 0,2.531 1.774,4.104 4.119,4.104 2.346,0 4.177,-1.573 4.177,-4.104zm-5.807 0c0,-1.359 0.772,-1.988 1.659,-1.988 0.858,0 1.659,0.629 1.659,1.988 0,1.344 -0.815,1.988 -1.688,1.988 -0.886,0 -1.63,-0.644 -1.63,-1.988z"/>
  <path id="3" class="fil0" d="M25.372 2.646c0.858,0 1.444,-0.587 1.444,-1.316 0,-0.744 -0.586,-1.33 -1.444,-1.33 -0.873,0 -1.459,0.586 -1.459,1.33 0,0.729 0.586,1.316 1.459,1.316zm-1.216 0.829l0 9.039c0,0.472 -0.2,0.672 -0.744,0.672l-0.586 0 0 2.074 0.958 0c1.659,0 2.818,-0.701 2.818,-2.774l0 -9.011 -2.446 0z"/>
  <path id="4" class="fil0" d="M31.879 5.32c0.815,0 1.502,0.501 1.502,1.373l-3.061 0c0.143,-0.886 0.758,-1.373 1.559,-1.373zm3.819 3.49l-2.603 0c-0.2,0.429 -0.587,0.772 -1.273,0.772 -0.787,0 -1.43,-0.486 -1.516,-1.53l5.535 0c0.028,-0.243 0.043,-0.486 0.043,-0.715 0,-2.431 -1.645,-3.976 -3.976,-3.976 -2.374,0 -4.033,1.573 -4.033,4.105 0,2.531 1.687,4.104 4.033,4.104 1.988,0 3.404,-1.201 3.79,-2.76z"/>
  <path id="5" class="fil0" d="M37.557 8.681c0,2.074 1.158,2.775 2.817,2.775l1.245 0 0 -2.074 -0.873 0c-0.543,0 -0.743,-0.2 -0.743,-0.672l0 -3.204 1.601 0 0 -2.031 -1.601 0 0 -1.945 -2.446 0 0 1.945 -0.972 0 0 2.031 0.972 0 0 3.175z"/>
  <path id="6" class="fil0" d="M50.786 7.466c0,-2.532 -1.802,-4.105 -4.147,-4.105 -2.331,0 -4.148,1.573 -4.148,4.105 0,2.531 1.774,4.104 4.119,4.104 2.346,0 4.176,-1.573 4.176,-4.104zm-5.806 0c0,-1.359 0.772,-1.988 1.659,-1.988 0.858,0 1.659,0.629 1.659,1.988 0,1.344 -0.815,1.988 -1.688,1.988 -0.887,0 -1.63,-0.644 -1.63,-1.988z"/>
  <path id="7" class="fil0" d="M58.567 9.139c-0.043,-2.975 -4.362,-2.074 -4.362,-3.347 0,-0.386 0.314,-0.615 0.886,-0.615 0.687,0 1.102,0.358 1.173,0.901l2.26 0c-0.158,-1.573 -1.302,-2.717 -3.361,-2.717 -2.088,0 -3.247,1.115 -3.247,2.474 0,2.932 4.348,2.002 4.348,3.29 0,0.357 -0.329,0.643 -0.958,0.643 -0.672,0 -1.173,-0.372 -1.23,-0.929l-2.417 0c0.114,1.544 1.544,2.731 3.675,2.731 2.003,0 3.233,-1.044 3.233,-2.431z"/>
 </g>
</svg>
