<?xml version="1.0" encoding="UTF-8"?>
<!DOCTYPE svg PUBLIC "-//W3C//DTD SVG 1.1//EN" "http://www.w3.org/Graphics/SVG/1.1/DTD/svg11.dtd">
<!-- Creator: CorelDRAW 2020 (64 Bit) -->
<svg xmlns="http://www.w3.org/2000/svg" xml:space="preserve" width="161px" height="90px" version="1.1" style="shape-rendering:geometricPrecision; text-rendering:geometricPrecision; image-rendering:optimizeQuality; fill-rule:evenodd; clip-rule:evenodd"
viewBox="0 0 29.393 16.423"
 xmlns:xlink="http://www.w3.org/1999/xlink"
 xmlns:xodm="http://www.corel.com/coreldraw/odm/2003">
 <defs>
  <style type="text/css">
   <![CDATA[
    .fil0 {fill:#14213D;fill-rule:nonzero}
    .fil1 {fill:#FCA311;fill-rule:nonzero}
   ]]>
  </style>
 </defs>
 <g id="Camada_x0020_1">
  <metadata id="CorelCorpID_0Corel-Layer"/>
  <g id="_2129495419120">
   <path class="fil0" d="M5.363 5.373c0,-2.378 -3.511,-1.821 -3.511,-3.056 0,-0.445 0.313,-0.658 0.728,-0.647 0.466,0.01 0.789,0.283 0.82,0.738l1.872 0c-0.071,-1.356 -1.113,-2.125 -2.662,-2.125 -1.487,0 -2.59,0.749 -2.59,2.095 -0.02,2.519 3.531,1.811 3.531,3.126 0,0.415 -0.323,0.668 -0.829,0.668 -0.486,0 -0.83,-0.263 -0.88,-0.809l-1.842 0c0.051,1.436 1.245,2.195 2.772,2.195 1.66,0 2.591,-0.991 2.591,-2.185z"/>
   <path id="1" class="fil0" d="M11.95 4.665c0,-1.791 -1.275,-2.904 -2.935,-2.904 -1.649,0 -2.934,1.113 -2.934,2.904 0,1.79 1.255,2.903 2.914,2.903 1.659,0 2.955,-1.113 2.955,-2.903zm-4.108 0c0,-0.962 0.546,-1.407 1.173,-1.407 0.607,0 1.174,0.445 1.174,1.407 0,0.951 -0.577,1.406 -1.194,1.406 -0.627,0 -1.153,-0.455 -1.153,-1.406z"/>
   <path id="2" class="fil0" d="M14.601 2.641l0 -2.641 -1.731 0 0 7.487 1.731 0 0 -0.789c0.313,0.496 0.91,0.87 1.74,0.87 1.386,0 2.489,-1.133 2.489,-2.914 0,-1.78 -1.093,-2.893 -2.489,-2.893 -0.81,0 -1.427,0.374 -1.74,0.88zm2.468 2.013c0,0.901 -0.586,1.407 -1.244,1.407 -0.648,0 -1.235,-0.496 -1.235,-1.396 0,-0.901 0.587,-1.397 1.235,-1.397 0.658,0 1.244,0.486 1.244,1.386z"/>
   <path id="3" class="fil0" d="M21.471 4.867c0,-0.971 0.475,-1.255 1.295,-1.255l0.475 0 0 -1.831c-0.758,0 -1.376,0.405 -1.77,1.002l0 -0.941 -1.73 0 0 5.645 1.73 0 0 -2.62z"/>
   <path id="4" class="fil0" d="M26.56 3.147c0.577,0 1.063,0.354 1.063,0.971l-2.166 0c0.102,-0.627 0.537,-0.971 1.103,-0.971zm2.702 2.469l-1.842 0c-0.141,0.303 -0.415,0.546 -0.9,0.546 -0.557,0 -1.012,-0.344 -1.073,-1.083l3.916 0c0.02,-0.172 0.03,-0.344 0.03,-0.506 0,-1.72 -1.163,-2.812 -2.813,-2.812 -1.679,0 -2.853,1.113 -2.853,2.904 0,1.79 1.194,2.903 2.853,2.903 1.407,0 2.409,-0.849 2.682,-1.952z"/>
   <path class="fil1" d="M15.572 16.423l0.911 0 0 -3.269c0,-1.588 -0.982,-2.377 -2.247,-2.377 -0.85,0 -1.639,0.435 -1.963,1.234 -0.364,-0.83 -1.123,-1.234 -2.033,-1.234 -0.729,0 -1.387,0.313 -1.751,0.9l0 -0.799 -0.921 0 0 5.545 0.921 0 0 -3.056c0,-1.194 0.638,-1.791 1.568,-1.791 0.911,0 1.518,0.577 1.518,1.71l0 3.137 0.911 0 0 -3.056c0,-1.194 0.637,-1.791 1.568,-1.791 0.911,0 1.518,0.577 1.518,1.71l0 3.137z"/>
   <path id="1" class="fil1" d="M17.99 16.423l0.921 0 0 -5.545 -0.921 0 0 5.545zm0.476 -6.446c0.334,0 0.607,-0.273 0.607,-0.627 0,-0.354 -0.273,-0.627 -0.607,-0.627 -0.354,0 -0.628,0.273 -0.628,0.627 0,0.354 0.274,0.627 0.628,0.627z"/>
   <path id="2" class="fil1" d="M28.483 16.423l0.91 0 0 -3.269c0,-1.588 -0.981,-2.377 -2.246,-2.377 -0.85,0 -1.639,0.435 -1.963,1.234 -0.364,-0.83 -1.123,-1.234 -2.034,-1.234 -0.728,0 -1.386,0.313 -1.75,0.9l0 -0.799 -0.921 0 0 5.545 0.921 0 0 -3.056c0,-1.194 0.637,-1.791 1.568,-1.791 0.911,0 1.518,0.577 1.518,1.71l0 3.137 0.911 0 0 -3.056c0,-1.194 0.637,-1.791 1.568,-1.791 0.911,0 1.518,0.577 1.518,1.71l0 3.137z"/>
  </g>
 </g>
</svg>
