<?xml version="1.0" encoding="UTF-8"?>
<!DOCTYPE svg PUBLIC "-//W3C//DTD SVG 1.1//EN" "http://www.w3.org/Graphics/SVG/1.1/DTD/svg11.dtd">
<!-- Creator: CorelDRAW 2020 (64 Bit) -->
<svg xmlns="http://www.w3.org/2000/svg" xml:space="preserve" width="381px" height="330px" version="1.1" style="shape-rendering:geometricPrecision; text-rendering:geometricPrecision; image-rendering:optimizeQuality; fill-rule:evenodd; clip-rule:evenodd"
viewBox="0 0 1234.296 1068.003"
 xmlns:xlink="http://www.w3.org/1999/xlink"
 xmlns:xodm="http://www.corel.com/coreldraw/odm/2003">
 <defs>
  <style type="text/css">
   <![CDATA[
    .str0 {stroke:#FCA311;stroke-width:6.475;stroke-miterlimit:22.9256}
    .fil0 {fill:none}
    .fil4 {fill:#999999;fill-rule:nonzero}
    .fil3 {fill:#E5E5E5;fill-rule:nonzero}
    .fil1 {fill:#FCA311;fill-rule:nonzero}
    .fil2 {fill:white;fill-rule:nonzero}
   ]]>
  </style>
 </defs>
 <g id="Camada_x0020_1">
  <metadata id="CorelCorpID_0Corel-Layer"/>
  <g id="_2129500294096">
   <rect class="fil0 str0" x="3.237" y="3.238" width="669.421" height="1061.529" rx="8.839" ry="58.388"/>
   <g>
    <path class="fil1" d="M699.687 192.978l0 -23.096 -49.992 0 0 240.897 49.992 0 0 -100.568c9.063,13.739 26.311,25.142 50.284,25.142 40.052,0 71.919,-32.744 71.919,-84.198 0,-51.453 -31.867,-83.612 -71.919,-83.612 -23.973,0 -41.221,11.109 -50.284,25.435zm71.334 58.177c0,26.02 -16.956,40.636 -35.959,40.636 -18.711,0 -35.668,-14.324 -35.668,-40.343 0,-26.019 16.957,-40.345 35.668,-40.345 19.003,0 35.959,14.033 35.959,40.052z"/>
    <path id="1" class="fil1" d="M1007.825 251.448c0,-51.746 -36.836,-83.905 -84.782,-83.905 -47.653,0 -84.781,32.159 -84.781,83.905 0,51.746 36.251,83.905 84.196,83.905 47.946,0 85.367,-32.159 85.367,-83.905zm-118.694 0c0,-27.774 15.786,-40.637 33.912,-40.637 17.542,0 33.913,12.863 33.913,40.637 0,27.481 -16.664,40.636 -34.498,40.636 -18.126,0 -33.327,-13.155 -33.327,-40.636z"/>
    <path id="2" class="fil1" d="M1084.421 257.295c0,-28.066 13.74,-36.251 37.42,-36.251l13.741 0 0 -52.916c-21.925,0 -39.76,11.694 -51.161,28.942l0 -27.188 -49.992 0 0 163.131 49.992 0 0 -75.718z"/>
    <path class="fil2" d="M782.252 519.813c0,42.39 23.68,56.715 57.593,56.715l25.435 0 0 -42.39 -17.834 0c-11.11,0 -15.202,-4.094 -15.202,-13.741l0 -65.487 32.743 0 0 -41.513 -32.743 0 0 -39.76 -49.992 0 0 39.76 -19.88 0 0 41.513 19.88 0 0 64.903z"/>
    <path id="1" class="fil2" d="M893.052 576.528l49.992 0 0 -163.131 -49.992 0 0 163.131zm25.142 -180.088c17.541,0 29.528,-11.986 29.528,-26.895 0,-15.203 -11.987,-27.189 -29.528,-27.189 -17.833,0 -29.819,11.986 -29.819,27.189 0,14.909 11.986,26.895 29.819,26.895z"/>
    <path class="fil3" d="M974.396 706.193l49.993 0 0 -121.618 26.896 0 0 -41.513 -26.896 0 0 -1.462c0,-17.248 6.723,-23.095 26.018,-21.927l0 -42.39c-49.699,-2.632 -76.011,18.418 -76.011,61.1l0 4.679 -18.125 0 0 41.513 18.125 0 0 121.618z"/>
    <path id="1" class="fil3" d="M1234.296 624.628c0,-51.747 -36.836,-83.905 -84.782,-83.905 -47.653,0 -84.781,32.158 -84.781,83.905 0,51.746 36.251,83.904 84.196,83.904 47.946,0 85.367,-32.158 85.367,-83.904zm-118.694 0c0,-27.774 15.786,-40.638 33.912,-40.638 17.542,0 33.913,12.864 33.913,40.638 0,27.481 -16.664,40.635 -34.498,40.635 -18.126,0 -33.327,-13.154 -33.327,-40.635zm1.461 -128.343l0 34.498 70.456 -29.528 0 -38.883 -70.456 33.913z"/>
    <polygon class="fil4" points="762.012,898.121 812.004,898.121 812.004,681.781 762.012,681.781 "/>
    <path id="1" class="fil4" d="M848.255 898.121l49.992 0 0 -163.131 -49.992 0 0 163.131zm25.142 -180.088c17.541,0 29.528,-11.987 29.528,-26.896 0,-15.202 -11.987,-27.189 -29.528,-27.189 -17.833,0 -29.819,11.987 -29.819,27.189 0,14.909 11.986,26.896 29.819,26.896z"/>
    <path id="2" class="fil4" d="M1094.122 816.555c0,-51.746 -36.836,-83.905 -84.783,-83.905 -47.652,0 -84.78,32.159 -84.78,83.905 0,51.747 36.251,83.905 84.196,83.905 47.946,0 85.367,-32.158 85.367,-83.905zm-118.694 0c0,-27.773 15.786,-40.637 33.911,-40.637 17.542,0 33.914,12.864 33.914,40.637 0,27.482 -16.664,40.636 -34.498,40.636 -18.126,0 -33.327,-13.154 -33.327,-40.636z"/>
   </g>
   <path class="fil4" d="M189.576 289.734c0,11.641 7.965,19.886 18.66,19.886 9.081,0 15.152,-4.569 17.938,-11.865l-2.898 0c-2.171,5.681 -7.241,9.637 -15.04,9.637 -8.967,0 -16.098,-6.741 -16.098,-17.658 0,-11.086 7.131,-17.771 16.098,-17.771 7.799,0 12.869,3.955 15.04,9.637l2.898 0c-2.786,-7.297 -8.857,-11.865 -17.938,-11.865 -10.695,0 -18.66,8.245 -18.66,19.999z"/>
   <path id="1" class="fil4" d="M262.326 294.078c0,-9.637 -6.406,-15.485 -14.874,-15.485 -8.466,0 -14.984,5.848 -14.984,15.485 0,9.692 6.406,15.597 14.873,15.597 8.467,0 14.985,-5.905 14.985,-15.597zm-27.296 0c0,-9.135 6.016,-13.314 12.367,-13.314 6.35,0 12.422,4.179 12.422,13.314 0,9.191 -6.127,13.369 -12.478,13.369 -6.35,0 -12.311,-4.178 -12.311,-13.369z"/>
   <path id="2" class="fil4" d="M272.463 291.794c0,-8.244 5.182,-10.807 10.362,-10.807l0.835 0 0 -2.618c-5.96,0 -9.692,2.452 -11.197,6.852l0 -6.239 -2.507 0 0 30.247 2.507 0 0 -17.435z"/>
   <path id="3" class="fil4" d="M302.543 280.709c6.127,0 12.032,3.9 11.643,12.311l-23.731 0c0.279,-8.356 5.905,-12.311 12.088,-12.311zm13.927 18.605l-2.618 0c-1.004,5.013 -5.293,8.189 -11.253,8.189 -6.239,0 -11.921,-4.012 -12.144,-12.423l26.126 0c0.112,-1.002 0.112,-1.671 0.112,-3.007 0,-7.019 -5.014,-13.48 -14.094,-13.48 -8.578,0 -14.705,5.848 -14.705,15.485 0,9.692 6.238,15.597 14.705,15.597 7.743,0 12.7,-4.401 13.871,-10.361z"/>
   <polygon id="4" class="fil4" points="324.267,309.229 326.774,309.229 326.774,268.009 324.267,268.009 "/>
   <path id="5" class="fil4" d="M362.647 270.125l-10.975 0 0 39.104 10.975 0c13.314,0 20.665,-7.241 20.665,-19.495 0,-12.256 -7.351,-19.609 -20.665,-19.609zm-8.468 36.988l0 -34.871 8.468 0c12.031,0 18.103,6.685 18.103,17.492 0,10.75 -6.072,17.379 -18.103,17.379l-8.468 0z"/>
   <path id="6" class="fil4" d="M393.395 291.794c0,-8.244 5.181,-10.807 10.361,-10.807l0.836 0 0 -2.618c-5.961,0 -9.692,2.452 -11.197,6.852l0 -6.239 -2.507 0 0 30.247 2.507 0 0 -17.435z"/>
   <path id="7" class="fil4" d="M408.825 294.078c0,9.525 6.127,15.597 14.594,15.597 6.629,0 11.14,-3.788 12.812,-8.412l0 7.966 2.507 0 0 -30.247 -2.507 0 0 7.909c-1.672,-4.567 -6.127,-8.298 -12.812,-8.298 -8.467,0 -14.594,5.904 -14.594,15.485zm27.406 0c0,8.189 -5.403,13.369 -12.477,13.369 -7.298,0 -12.367,-5.014 -12.367,-13.369 0,-8.356 5.069,-13.314 12.367,-13.314 7.074,0 12.477,5.237 12.477,13.314z"/>
   <polygon id="8" class="fil4" points="453.779,309.229 456.173,309.229 465.866,282.436 475.502,309.229 477.898,309.229 487.424,278.982 484.861,278.982 476.728,306.277 467.091,278.982 464.697,278.982 455.003,306.389 446.871,278.982 444.253,278.982 "/>
   <path id="9" class="fil4" d="M193.642 387.996l0 -17.492 8.356 0c7.464,0 10.305,3.286 10.305,8.802 0,5.291 -2.841,8.69 -10.305,8.69l-8.356 0zm21.168 -8.69c0,-6.463 -3.844,-11.03 -12.812,-11.03l-10.863 0 0 39.104 2.507 0 0 -17.156 8.356 0c8.634,0 12.812,-4.122 12.812,-10.918z"/>
   <path id="10" class="fil4" d="M221.549 407.38l2.507 0 0 -16.321c0,-8.411 4.457,-12.366 10.752,-12.366 6.07,0 10.137,3.787 10.137,11.14l0 17.547 2.451 0 0 -17.714c0,-9.08 -5.459,-13.146 -12.143,-13.146 -5.069,0 -9.415,2.34 -11.197,7.019l0 -17.38 -2.507 0 0 41.221z"/>
   <path id="11" class="fil4" d="M284.551 392.229c0,-9.637 -6.406,-15.485 -14.874,-15.485 -8.466,0 -14.983,5.848 -14.983,15.485 0,9.692 6.406,15.597 14.872,15.597 8.468,0 14.985,-5.905 14.985,-15.597zm-27.295 0c0,-9.136 6.015,-13.314 12.366,-13.314 6.35,0 12.422,4.178 12.422,13.314 0,9.191 -6.127,13.369 -12.478,13.369 -6.35,0 -12.31,-4.178 -12.31,-13.369z"/>
   <path id="12" class="fil4" d="M293.408 399.303c0,5.961 2.507,8.077 7.687,8.077l3.787 0 0 -2.228 -3.397 0c-4.067,0 -5.57,-1.281 -5.57,-5.849l0 -19.997 8.967 0 0 -2.173 -8.967 0 0 -7.687 -2.507 0 0 7.687 -4.568 0 0 2.173 4.568 0 0 19.997z"/>
   <path id="13" class="fil4" d="M339.81 392.229c0,-9.637 -6.406,-15.485 -14.874,-15.485 -8.466,0 -14.984,5.848 -14.984,15.485 0,9.692 6.407,15.597 14.873,15.597 8.467,0 14.985,-5.905 14.985,-15.597zm-27.296 0c0,-9.136 6.016,-13.314 12.367,-13.314 6.35,0 12.422,4.178 12.422,13.314 0,9.191 -6.127,13.369 -12.478,13.369 -6.35,0 -12.311,-4.178 -12.311,-13.369z"/>
   <path id="14" class="fil4" d="M367.494 399.582c-0.111,-10.584 -18.494,-5.627 -18.494,-14.985 0,-3.119 3.064,-5.737 7.465,-5.737 5.347,0 8.133,3.007 8.356,6.795l2.507 0c-0.335,-5.625 -4.512,-8.911 -10.807,-8.911 -5.904,0 -10.027,3.62 -10.027,7.853 0,11.475 18.55,6.629 18.55,14.985 0,3.286 -2.786,6.072 -7.521,6.072 -5.737,0 -8.912,-2.563 -9.302,-6.406l-2.563 0c0.558,5.57 5.236,8.578 11.865,8.578 5.794,0 9.971,-3.509 9.971,-8.244z"/>
   <path id="15" class="fil4" d="M375.125 407.38l2.507 0 0 -16.321c0,-8.411 4.457,-12.366 10.752,-12.366 6.07,0 10.137,3.787 10.137,11.14l0 17.547 2.451 0 0 -17.714c0,-9.08 -5.459,-13.146 -12.143,-13.146 -5.069,0 -9.415,2.34 -11.197,7.019l0 -17.38 -2.507 0 0 41.221z"/>
   <path id="16" class="fil4" d="M438.127 392.229c0,-9.637 -6.406,-15.485 -14.874,-15.485 -8.466,0 -14.983,5.848 -14.983,15.485 0,9.692 6.406,15.597 14.872,15.597 8.468,0 14.985,-5.905 14.985,-15.597zm-27.295 0c0,-9.136 6.015,-13.314 12.366,-13.314 6.35,0 12.422,4.178 12.422,13.314 0,9.191 -6.127,13.369 -12.478,13.369 -6.35,0 -12.31,-4.178 -12.31,-13.369z"/>
   <path id="17" class="fil4" d="M448.265 385.099l0 -7.966 -2.507 0 0 44.508 2.507 0 0 -22.17c1.671,4.567 6.183,8.355 12.812,8.355 8.467,0 14.594,-6.072 14.594,-15.597 0,-9.581 -6.127,-15.485 -14.594,-15.485 -6.629,0 -11.196,3.731 -12.812,8.355zm24.844 7.13c0,8.355 -5.07,13.369 -12.423,13.369 -7.017,0 -12.421,-5.18 -12.421,-13.369 0,-8.077 5.404,-13.314 12.421,-13.314 7.353,0 12.423,4.958 12.423,13.314z"/>
   <polygon id="18" class="fil4" points="216.481,505.531 218.987,505.531 218.987,466.427 216.481,466.427 216.481,484.475 193.642,484.475 193.642,466.427 191.135,466.427 191.135,505.531 193.642,505.531 193.642,486.592 216.481,486.592 "/>
   <polygon id="19" class="fil4" points="224.948,468.543 236.089,468.543 236.089,505.531 238.595,505.531 238.595,468.543 249.736,468.543 249.736,466.427 224.948,466.427 "/>
   <polygon id="20" class="fil4" points="255.696,505.531 258.203,505.531 258.203,472.499 272.965,505.531 274.97,505.531 289.676,472.499 289.676,505.531 292.183,505.531 292.183,467.262 289.565,467.262 273.967,502.245 258.37,467.262 255.696,467.262 "/>
   <polygon id="21" class="fil4" points="301.374,466.427 301.374,505.531 318.42,505.531 318.42,503.414 303.88,503.414 303.88,466.427 "/>
   <path id="22" class="fil4" d="M189.576 584.186c0,11.641 7.965,19.886 18.66,19.886 9.081,0 15.152,-4.568 17.938,-11.865l-2.898 0c-2.171,5.682 -7.241,9.637 -15.04,9.637 -8.967,0 -16.098,-6.741 -16.098,-17.658 0,-11.086 7.131,-17.771 16.098,-17.771 7.799,0 12.869,3.956 15.04,9.637l2.898 0c-2.786,-7.296 -8.857,-11.865 -17.938,-11.865 -10.695,0 -18.66,8.245 -18.66,19.999z"/>
   <path id="23" class="fil4" d="M257.368 593.822c0,-14.706 -21.836,-6.963 -21.836,-19.607 0,-4.959 4.289,-7.911 9.413,-7.855 6.128,0 8.969,3.956 9.526,6.685l2.673 0c-0.779,-4.568 -4.79,-8.858 -12.143,-8.858 -7.297,0 -11.976,4.513 -11.976,10.083 0,14.874 21.836,6.963 21.836,19.608 0,4.456 -3.621,8.021 -9.526,8.021 -7.353,0 -9.803,-4.623 -10.248,-7.854l-2.619 0c0.446,5.459 5.013,10.027 12.867,10.027 8.021,0 12.033,-5.236 12.033,-10.25z"/>
   <path id="24" class="fil4" d="M288.229 593.822c0,-14.706 -21.837,-6.963 -21.837,-19.607 0,-4.959 4.29,-7.911 9.414,-7.855 6.128,0 8.969,3.956 9.526,6.685l2.673 0c-0.78,-4.568 -4.79,-8.858 -12.143,-8.858 -7.298,0 -11.976,4.513 -11.976,10.083 0,14.874 21.836,6.963 21.836,19.608 0,4.456 -3.622,8.021 -9.526,8.021 -7.353,0 -9.804,-4.623 -10.249,-7.854l-2.618 0c0.445,5.459 5.012,10.027 12.867,10.027 8.021,0 12.033,-5.236 12.033,-10.25z"/>
   <path id="25" class="fil4" d="M204.894 693.087c0,3.232 -1.559,6.908 -6.74,6.908 -5.291,0 -7.185,-3.844 -7.185,-8.133l-2.507 0c0,6.406 3.62,10.361 9.692,10.361 5.793,0 9.303,-3.844 9.303,-9.136l0 -30.359 -2.563 0 0 30.359z"/>
   <path id="26" class="fil4" d="M215.367 686.681c0,9.525 6.127,15.597 14.593,15.597 6.63,0 11.141,-3.788 12.812,-8.411l0 7.966 2.507 0 0 -30.248 -2.507 0 0 7.91c-1.671,-4.567 -6.127,-8.299 -12.812,-8.299 -8.466,0 -14.593,5.904 -14.593,15.485zm27.405 0c0,8.189 -5.402,13.369 -12.477,13.369 -7.297,0 -12.366,-5.014 -12.366,-13.369 0,-8.356 5.069,-13.313 12.366,-13.313 7.075,0 12.477,5.236 12.477,13.313z"/>
   <polygon id="27" class="fil4" points="250.795,671.585 263.328,701.833 265.946,701.833 278.479,671.585 275.806,671.585 264.665,699.103 253.524,671.585 "/>
   <path id="28" class="fil4" d="M282.434 686.681c0,9.525 6.128,15.597 14.594,15.597 6.63,0 11.141,-3.788 12.812,-8.411l0 7.966 2.507 0 0 -30.248 -2.507 0 0 7.91c-1.671,-4.567 -6.127,-8.299 -12.812,-8.299 -8.466,0 -14.594,5.904 -14.594,15.485zm27.406 0c0,8.189 -5.403,13.369 -12.477,13.369 -7.298,0 -12.367,-5.014 -12.367,-13.369 0,-8.356 5.069,-13.313 12.367,-13.313 7.074,0 12.477,5.236 12.477,13.313z"/>
   <path id="29" class="fil4" d="M341.536 694.034c-0.111,-10.584 -18.494,-5.626 -18.494,-14.985 0,-3.118 3.064,-5.736 7.465,-5.736 5.347,0 8.133,3.007 8.356,6.795l2.507 0c-0.336,-5.626 -4.512,-8.912 -10.807,-8.912 -5.905,0 -10.028,3.62 -10.028,7.853 0,11.475 18.55,6.629 18.55,14.985 0,3.287 -2.785,6.072 -7.52,6.072 -5.737,0 -8.912,-2.563 -9.302,-6.406l-2.563 0c0.558,5.571 5.236,8.578 11.865,8.578 5.794,0 9.971,-3.509 9.971,-8.244z"/>
   <path id="30" class="fil4" d="M347.608 686.681c0,9.693 6.127,15.597 14.65,15.597 7.687,0 12.701,-4.344 13.87,-10.528l-2.618 0c-1.002,5.237 -5.348,8.356 -11.252,8.356 -6.461,0 -12.088,-4.289 -12.088,-13.425 0,-9.08 5.627,-13.368 12.088,-13.368 5.904,0 10.25,3.175 11.252,8.355l2.618 0c-1.169,-6.295 -6.183,-10.472 -13.87,-10.472 -8.523,0 -14.65,5.848 -14.65,15.485z"/>
   <path id="31" class="fil4" d="M386.266 684.397c0,-8.243 5.181,-10.807 10.361,-10.807l0.836 0 0 -2.618c-5.961,0 -9.692,2.452 -11.197,6.853l0 -6.24 -2.507 0 0 30.248 2.507 0 0 -17.436z"/>
   <path id="32" class="fil4" d="M403.255 701.833l2.507 0 0 -30.248 -2.507 0 0 30.248zm1.282 -36.988c1.17,0 2.117,-0.836 2.117,-2.173 0,-1.281 -0.947,-2.171 -2.117,-2.171 -1.17,0 -2.117,0.89 -2.117,2.171 0,1.337 0.947,2.173 2.117,2.173z"/>
   <path id="33" class="fil4" d="M417.459 679.551l0 -7.966 -2.507 0 0 44.508 2.507 0 0 -22.17c1.671,4.567 6.183,8.355 12.812,8.355 8.468,0 14.595,-6.072 14.595,-15.597 0,-9.581 -6.127,-15.485 -14.595,-15.485 -6.629,0 -11.196,3.732 -12.812,8.355zm24.845 7.13c0,8.355 -5.07,13.369 -12.423,13.369 -7.018,0 -12.422,-5.18 -12.422,-13.369 0,-8.077 5.404,-13.313 12.422,-13.313 7.353,0 12.423,4.957 12.423,13.313z"/>
   <path id="34" class="fil4" d="M453.667 693.755c0,5.961 2.507,8.078 7.687,8.078l3.788 0 0 -2.228 -3.397 0c-4.067,0 -5.571,-1.281 -5.571,-5.85l0 -19.997 8.968 0 0 -2.173 -8.968 0 0 -7.687 -2.507 0 0 7.687 -4.567 0 0 2.173 4.567 0 0 19.997z"/>
   <path id="35" class="fil4" d="M193.642 780.599l0 -17.492 8.356 0c7.464,0 10.305,3.286 10.305,8.802 0,5.291 -2.841,8.69 -10.305,8.69l-8.356 0zm21.168 -8.69c0,-6.463 -3.844,-11.03 -12.812,-11.03l-10.863 0 0 39.105 2.507 0 0 -17.157 8.356 0c8.634,0 12.812,-4.122 12.812,-10.918z"/>
   <polygon id="36" class="fil4" points="246.895,799.984 249.401,799.984 249.401,760.879 246.895,760.879 246.895,778.928 224.056,778.928 224.056,760.879 221.549,760.879 221.549,799.984 224.056,799.984 224.056,781.044 246.895,781.044 "/>
   <path id="37" class="fil4" d="M261.043 780.599l0 -17.492 8.357 0c7.464,0 10.305,3.286 10.305,8.802 0,5.291 -2.841,8.69 -10.305,8.69l-8.357 0zm21.169 -8.69c0,-6.463 -3.844,-11.03 -12.812,-11.03l-10.863 0 0 39.105 2.506 0 0 -17.157 8.357 0c8.634,0 12.812,-4.122 12.812,-10.918z"/>
  </g>
 </g>
</svg>
