<?xml version="1.0" encoding="UTF-8"?>
<!DOCTYPE svg PUBLIC "-//W3C//DTD SVG 1.1//EN" "http://www.w3.org/Graphics/SVG/1.1/DTD/svg11.dtd">
<!-- Creator: CorelDRAW 2020 (64 Bit) -->
<svg xmlns="http://www.w3.org/2000/svg" xml:space="preserve" width="144px" height="30px" version="1.1" style="shape-rendering:geometricPrecision; text-rendering:geometricPrecision; image-rendering:optimizeQuality; fill-rule:evenodd; clip-rule:evenodd"
viewBox="0 0 30.064 6.337"
 xmlns:xlink="http://www.w3.org/1999/xlink"
 xmlns:xodm="http://www.corel.com/coreldraw/odm/2003">
 <defs>
  <style type="text/css">
   <![CDATA[
    .fil0 {fill:#0E1742;fill-rule:nonzero}
   ]]>
  </style>
 </defs>
 <g id="Camada_x0020_1">
  <metadata id="CorelCorpID_0Corel-Layer"/>
  <g id="_2066160807456">
   <path class="fil0" d="M11.562 0.802c0.075,0 0.124,-0.044 0.124,-0.121 0,-0.076 -0.049,-0.119 -0.124,-0.119l-0.135 0 0 0.24 0.135 0zm-0.166 -0.269l0.168 0c0.089,0 0.155,0.056 0.155,0.148 0,0.093 -0.066,0.15 -0.155,0.15l-0.137 0 0 0.212 -0.031 0 0 -0.51z"/>
   <path class="fil0" d="M12.479 0.788c0.067,0 0.109,-0.048 0.109,-0.118 0,-0.045 -0.022,-0.081 -0.06,-0.098 -0.014,-0.007 -0.03,-0.01 -0.071,-0.01l-0.117 0 0 0.226 0.139 0zm-0.17 -0.255l0.149 0c0.048,0 0.072,0.005 0.092,0.015 0.043,0.021 0.071,0.064 0.071,0.122 0,0.073 -0.042,0.128 -0.102,0.141l0 0.001c0,0 0.005,0.006 0.012,0.019l0.114 0.212 -0.037 0 -0.121 -0.226 -0.147 0 0 0.226 -0.031 0 0 -0.51z"/>
   <path class="fil0" d="M13.465 1.022c0.125,0 0.226,-0.104 0.226,-0.238 0,-0.131 -0.101,-0.23 -0.226,-0.23 -0.124,0 -0.225,0.099 -0.225,0.23 0,0.134 0.101,0.238 0.225,0.238zm0 -0.498c0.143,0 0.258,0.113 0.258,0.26 0,0.15 -0.115,0.268 -0.258,0.268 -0.142,0 -0.258,-0.118 -0.258,-0.268 0,-0.147 0.116,-0.26 0.258,-0.26z"/>
   <path class="fil0" d="M14.547 0.524c0.115,0 0.178,0.057 0.178,0.057l-0.019 0.024c0,0 -0.062,-0.051 -0.159,-0.051 -0.129,0 -0.222,0.102 -0.222,0.234 0,0.132 0.091,0.234 0.217,0.234 0.11,0 0.175,-0.084 0.175,-0.084l0 -0.099 -0.091 0 0 -0.029 0.123 0 0 0.233 -0.032 0 0 -0.045c0,-0.011 0.001,-0.022 0.001,-0.022l-0.001 0c0,0 -0.062,0.076 -0.175,0.076 -0.142,0 -0.25,-0.116 -0.25,-0.264 0,-0.148 0.11,-0.264 0.255,-0.264z"/>
   <path class="fil0" d="M15.53 0.788c0.067,0 0.109,-0.048 0.109,-0.118 0,-0.045 -0.023,-0.081 -0.06,-0.098 -0.014,-0.007 -0.03,-0.01 -0.071,-0.01l-0.117 0 0 0.226 0.139 0zm-0.17 -0.255l0.149 0c0.048,0 0.072,0.005 0.092,0.015 0.042,0.021 0.071,0.064 0.071,0.122 0,0.073 -0.042,0.128 -0.102,0.141l0 0.001c0,0 0.005,0.006 0.011,0.019l0.115 0.212 -0.037 0 -0.121 -0.226 -0.147 0 0 0.226 -0.031 0 0 -0.51z"/>
   <path class="fil0" d="M16.435 0.569c0,0 -0.011,0.039 -0.019,0.061l-0.078 0.207 0.195 0 -0.077 -0.207c-0.008,-0.022 -0.019,-0.061 -0.019,-0.061l-0.002 0zm0.109 0.297l-0.217 0 -0.065 0.177 -0.034 0 0.191 -0.51 0.034 0 0.191 0.51 -0.034 0 -0.066 -0.177z"/>
   <path class="fil0" d="M17.243 0.533l0.031 0 0.149 0.32c0.011,0.025 0.024,0.058 0.024,0.058l0.002 0c0,0 0.013,-0.033 0.025,-0.058l0.148 -0.32 0.031 0 0.041 0.51 -0.032 0 -0.031 -0.39c-0.002,-0.024 -0.002,-0.067 -0.002,-0.067l-0.002 0c0,0 -0.014,0.043 -0.026,0.067l-0.137 0.291 -0.032 0 -0.136 -0.291c-0.011,-0.024 -0.027,-0.069 -0.027,-0.069l-0.002 0c0,0 0,0.045 -0.002,0.069l-0.031 0.39 -0.032 0 0.041 -0.51z"/>
   <path class="fil0" d="M18.459 0.569c0,0 -0.01,0.039 -0.018,0.061l-0.079 0.207 0.195 0 -0.077 -0.207c-0.008,-0.022 -0.019,-0.061 -0.019,-0.061l-0.002 0zm0.109 0.297l-0.216 0 -0.066 0.177 -0.034 0 0.191 -0.51 0.034 0 0.191 0.51 -0.034 0 -0.066 -0.177z"/>
   <path class="fil0" d="M26.753 3.978c0,0.274 0.09,0.509 0.272,0.704 0.181,0.196 0.396,0.293 0.647,0.293 0.25,0 0.464,-0.097 0.641,-0.293 0.176,-0.195 0.263,-0.43 0.263,-0.704 0,-0.281 -0.087,-0.518 -0.263,-0.71 -0.177,-0.193 -0.391,-0.289 -0.641,-0.289 -0.251,0 -0.466,0.096 -0.647,0.289 -0.182,0.192 -0.272,0.429 -0.272,0.71zm-1.488 0.008c0,-0.684 0.225,-1.243 0.674,-1.677 0.45,-0.435 1.028,-0.653 1.733,-0.653 0.701,0 1.273,0.218 1.722,0.653 0.446,0.434 0.67,0.993 0.67,1.677 0,0.685 -0.222,1.245 -0.667,1.679 -0.444,0.435 -1.019,0.653 -1.725,0.653 -0.705,0 -1.283,-0.218 -1.733,-0.653 -0.449,-0.434 -0.674,-0.994 -0.674,-1.679zm0.037 -2.071l0 1.315c-0.128,-0.097 -0.247,-0.168 -0.357,-0.212 -0.11,-0.044 -0.219,-0.067 -0.326,-0.067 -0.307,0 -0.553,0.094 -0.74,0.283 -0.186,0.189 -0.28,0.44 -0.28,0.752 0,0.314 0.092,0.57 0.273,0.768 0.181,0.199 0.421,0.298 0.717,0.298 0.106,0 0.209,-0.018 0.306,-0.053 0.097,-0.035 0.194,-0.085 0.291,-0.148 0.022,-0.02 0.04,-0.036 0.058,-0.05 0.018,-0.012 0.037,-0.027 0.058,-0.047l0 1.305c-0.082,0.038 -0.159,0.071 -0.231,0.101 -0.071,0.028 -0.145,0.052 -0.222,0.071 -0.087,0.026 -0.173,0.044 -0.26,0.053 -0.087,0.01 -0.182,0.015 -0.284,0.015 -0.618,0 -1.136,-0.221 -1.552,-0.662 -0.417,-0.441 -0.625,-0.994 -0.625,-1.659 0,-0.653 0.216,-1.2 0.648,-1.641 0.432,-0.44 0.964,-0.662 1.599,-0.662 0.106,0 0.208,0.007 0.302,0.019 0.094,0.013 0.19,0.035 0.287,0.068 0.051,0.018 0.105,0.041 0.161,0.067 0.057,0.025 0.114,0.054 0.177,0.086zm-8.145 2.082c0,0.274 0.089,0.508 0.268,0.7 0.179,0.192 0.393,0.287 0.644,0.287 0.25,0 0.463,-0.095 0.64,-0.287 0.177,-0.192 0.264,-0.426 0.264,-0.7 0,-0.282 -0.087,-0.519 -0.264,-0.711 -0.177,-0.191 -0.39,-0.287 -0.64,-0.287 -0.251,0 -0.465,0.098 -0.644,0.293 -0.179,0.195 -0.268,0.429 -0.268,0.705zm1.785 -3.997l1.411 0 0 6.164 -1.411 0 0 -0.479c-0.158,0.204 -0.334,0.358 -0.529,0.46 -0.194,0.103 -0.411,0.154 -0.651,0.154 -0.598,0 -1.094,-0.22 -1.487,-0.657 -0.394,-0.439 -0.59,-0.99 -0.59,-1.656 0,-0.651 0.192,-1.199 0.579,-1.644 0.385,-0.444 0.864,-0.667 1.437,-0.667 0.255,0 0.482,0.045 0.682,0.134 0.199,0.09 0.385,0.234 0.559,0.433l0 -2.242zm-7.576 1.819l1.411 0 0 0.547c0.036,-0.045 0.072,-0.087 0.107,-0.124 0.037,-0.039 0.069,-0.077 0.1,-0.116 0.153,-0.147 0.313,-0.251 0.479,-0.312 0.167,-0.061 0.369,-0.091 0.61,-0.091 0.495,0 0.871,0.149 1.127,0.446 0.255,0.298 0.383,0.709 0.383,1.233l0 2.762 -1.411 0 0 -2.196c0,-0.377 -0.048,-0.643 -0.145,-0.797 -0.097,-0.153 -0.266,-0.23 -0.506,-0.23 -0.235,0 -0.418,0.079 -0.549,0.235 -0.129,0.157 -0.195,0.376 -0.195,0.658l0 2.33 -1.411 0 0 -4.345zm-5.585 -0.01l0 2.466c0,0.269 0.061,0.47 0.181,0.604 0.12,0.135 0.298,0.202 0.532,0.202 0.241,0 0.422,-0.067 0.545,-0.202 0.123,-0.134 0.184,-0.335 0.184,-0.604l0 -2.466 1.411 0 0 2.763c0,0.582 -0.182,1.022 -0.544,1.319 -0.364,0.297 -0.896,0.446 -1.596,0.446 -0.689,0 -1.216,-0.149 -1.579,-0.446 -0.362,-0.297 -0.544,-0.737 -0.544,-1.319l0 -2.763 1.41 0zm-2.667 1.573c-0.051,-0.217 -0.148,-0.388 -0.291,-0.513 -0.143,-0.124 -0.314,-0.187 -0.514,-0.187 -0.219,0 -0.4,0.061 -0.544,0.182 -0.143,0.123 -0.235,0.295 -0.275,0.518l1.624 0zm1.287 0.893l-2.967 0c0.005,0.332 0.079,0.578 0.222,0.739 0.144,0.158 0.361,0.239 0.652,0.239 0.163,0 0.295,-0.032 0.395,-0.096 0.1,-0.063 0.192,-0.169 0.279,-0.316l1.357 0c-0.142,0.524 -0.393,0.903 -0.751,1.136 -0.358,0.234 -0.779,0.35 -1.265,0.35 -0.711,0 -1.275,-0.207 -1.693,-0.623 -0.42,-0.416 -0.63,-0.975 -0.63,-1.678 0,-0.781 0.216,-1.364 0.648,-1.751 0.433,-0.387 0.988,-0.581 1.668,-0.581 0.72,0 1.248,0.248 1.583,0.744 0.334,0.495 0.502,1.107 0.502,1.837z"/>
   <path class="fil0" d="M21.72 1.54c0.262,-0.145 0.436,-0.43 0.422,-0.754 -0.018,-0.421 -0.367,-0.769 -0.789,-0.785 -0.468,-0.018 -0.854,0.356 -0.854,0.821 0,0.307 0.17,0.576 0.42,0.716 0.096,0.054 0.159,0.152 0.159,0.262 0,0.01 -0.008,0.019 -0.019,0.019l-0.444 0 0 4.345 1.412 0 0 -4.345 -0.444 0c-0.011,0 -0.019,-0.009 -0.019,-0.019l0 -0.005c0,-0.107 0.062,-0.202 0.156,-0.255z"/>
   <path class="fil0" d="M10.798 1.54c0.262,-0.145 0.435,-0.43 0.422,-0.754 -0.018,-0.421 -0.367,-0.769 -0.789,-0.785 -0.468,-0.018 -0.854,0.356 -0.854,0.821 0,0.307 0.169,0.576 0.42,0.716 0.096,0.054 0.159,0.152 0.159,0.262 0,0.01 -0.008,0.019 -0.019,0.019l-0.444 0 0 4.345 1.411 0 0 -4.345 -0.444 0c-0.01,0 -0.018,-0.009 -0.018,-0.019l0 -0.005c0,-0.107 0.062,-0.202 0.156,-0.255z"/>
  </g>
 </g>
</svg>
