<?xml version="1.0" encoding="UTF-8"?>
<!DOCTYPE svg PUBLIC "-//W3C//DTD SVG 1.1//EN" "http://www.w3.org/Graphics/SVG/1.1/DTD/svg11.dtd">
<!-- Creator: CorelDRAW 2020 (64 Bit) -->
<svg xmlns="http://www.w3.org/2000/svg" xml:space="preserve" width="136px" height="136px" version="1.1" style="shape-rendering:geometricPrecision; text-rendering:geometricPrecision; image-rendering:optimizeQuality; fill-rule:evenodd; clip-rule:evenodd"
viewBox="0 0 24.937 24.937"
 xmlns:xlink="http://www.w3.org/1999/xlink"
 xmlns:xodm="http://www.corel.com/coreldraw/odm/2003">
 <defs>
  <style type="text/css">
   <![CDATA[
    .fil0 {fill:#D6A75C;fill-rule:nonzero}
   ]]>
  </style>
 </defs>
 <g id="Camada_x0020_1">
  <metadata id="CorelCorpID_0Corel-Layer"/>
  <path class="fil0" d="M0.911 10.261l3.836 -3.837 0 6.572c0,0.976 0.4,1.865 1.045,2.51 0.644,0.644 1.533,1.045 2.51,1.045l8.1 0c0.208,0 0.396,-0.084 0.531,-0.22l0 -0.001c0.136,-0.135 0.22,-0.323 0.22,-0.531 0.001,-0.206 -0.083,-0.394 -0.22,-0.53 -0.135,-0.136 -0.323,-0.22 -0.531,-0.22l-8.1 -0.001c-0.565,0 -1.078,-0.231 -1.45,-0.602 -0.372,-0.372 -0.603,-0.886 -0.603,-1.45l0 -8.074 4.012 -4.011c0.607,-0.607 1.407,-0.911 2.207,-0.911 0.8,0 1.601,0.304 2.208,0.911l9.35 9.35c0.607,0.607 0.911,1.407 0.911,2.207 0,0.8 -0.304,1.601 -0.911,2.208l-3.836 3.836c0,-0.667 0.001,-6.571 -0.001,-6.571 0,-0.977 -0.4,-1.866 -1.044,-2.51 -0.644,-0.645 -1.533,-1.045 -2.51,-1.045l-8.1 0c-0.208,0 -0.396,0.084 -0.531,0.219l0 0.001c-0.137,0.136 -0.221,0.325 -0.221,0.531 0,0.208 0.084,0.396 0.22,0.531l0.001 0c0.135,0.136 0.323,0.22 0.53,0.22l8.101 0c0.564,0 1.078,0.231 1.45,0.603 0.372,0.372 0.603,0.885 0.603,1.45l-0.001 8.074 -4.011 4.011c-0.607,0.607 -1.408,0.911 -2.208,0.911 -0.8,0 -1.6,-0.304 -2.207,-0.911l-9.35 -9.35c-0.607,-0.607 -0.911,-1.408 -0.911,-2.208 0,-0.8 0.304,-1.6 0.911,-2.207zm3.469 -2.95l-3.209 3.21c-0.536,0.535 -0.804,1.241 -0.804,1.947 0,0.707 0.268,1.413 0.804,1.948l9.35 9.35c0.535,0.536 1.241,0.804 1.947,0.804 0.707,0 1.413,-0.268 1.948,-0.804l3.905 -3.904 0 -7.921c-0.001,-0.463 -0.191,-0.885 -0.496,-1.19 -0.306,-0.306 -0.727,-0.495 -1.19,-0.495l-8.101 0c-0.308,0 -0.588,-0.126 -0.79,-0.328 -0.202,-0.203 -0.327,-0.482 -0.327,-0.791 0,-0.309 0.125,-0.589 0.327,-0.79 0.203,-0.203 0.482,-0.328 0.791,-0.328l8.099 0.001 0.001 -0.001c1.078,0 2.059,0.441 2.77,1.152 0.711,0.711 1.152,1.691 1.152,2.77l-0.001 5.685 3.21 -3.21c0.536,-0.535 0.804,-1.241 0.804,-1.948 0,-0.706 -0.268,-1.412 -0.804,-1.947l-9.35 -9.35c-0.535,-0.536 -1.241,-0.804 -1.948,-0.804 -0.706,0 -1.412,0.268 -1.947,0.804l-3.904 3.904 0 7.921c0,0.463 0.189,0.884 0.495,1.19 0.306,0.306 0.727,0.496 1.19,0.496l8.1 0c0.309,-0.001 0.589,0.124 0.791,0.327 0.202,0.202 0.327,0.481 0.327,0.79 0.001,0.309 -0.125,0.589 -0.327,0.791 -0.203,0.202 -0.483,0.328 -0.791,0.328l-8.1 0c-1.079,0 -2.059,-0.441 -2.77,-1.152 -0.71,-0.71 -1.151,-1.691 -1.151,-2.77l-0.001 -5.685z"/>
  <path class="fil0" d="M16.402 16.55c0.208,0 0.396,-0.084 0.531,-0.22 0.136,-0.135 0.22,-0.323 0.22,-0.531 0,-0.207 -0.084,-0.395 -0.219,-0.53l-0.001 0c-0.135,-0.136 -0.323,-0.22 -0.531,-0.22l-8.1 0c-0.564,0 -1.078,-0.231 -1.45,-0.603 -0.372,-0.372 -0.603,-0.886 -0.603,-1.45l0 -8.101c0,-0.207 -0.083,-0.395 -0.219,-0.53l-0.001 0c-0.135,-0.136 -0.323,-0.22 -0.531,-0.22 -0.207,0 -0.395,0.084 -0.531,0.22l0 0c-0.136,0.135 -0.22,0.323 -0.22,0.53l0 8.101c0,0.977 0.4,1.866 1.045,2.51 0.644,0.644 1.533,1.044 2.51,1.044l8.1 0zm0.791 0.04c-0.202,0.203 -0.482,0.328 -0.791,0.328l-8.1 0c-1.079,0 -2.059,-0.441 -2.77,-1.152 -0.711,-0.711 -1.152,-1.692 -1.152,-2.77l0 -8.101c0,-0.308 0.125,-0.587 0.328,-0.79 0.202,-0.203 0.482,-0.328 0.79,-0.328 0.309,0 0.589,0.125 0.791,0.328 0.202,0.203 0.328,0.482 0.328,0.79l0 8.101c0,0.463 0.189,0.884 0.495,1.19 0.306,0.305 0.727,0.495 1.19,0.495l8.1 0c0.309,0 0.589,0.125 0.791,0.328 0.202,0.203 0.328,0.482 0.328,0.79 0,0.309 -0.126,0.589 -0.328,0.791z"/>
  <path class="fil0" d="M20.557 20.041c0,0.309 -0.125,0.589 -0.328,0.791 -0.202,0.202 -0.482,0.327 -0.791,0.327 -0.308,0 -0.588,-0.125 -0.79,-0.327 -0.203,-0.202 -0.328,-0.482 -0.328,-0.791l0 -8.1c0,-0.463 -0.19,-0.885 -0.495,-1.19 -0.306,-0.306 -0.727,-0.496 -1.19,-0.496l-8.101 0c-0.308,0 -0.588,-0.125 -0.79,-0.327 -0.203,-0.202 -0.328,-0.482 -0.328,-0.791 0,-0.309 0.125,-0.588 0.328,-0.791 0.202,-0.202 0.482,-0.327 0.79,-0.327l8.101 0c1.078,0 2.059,0.441 2.77,1.152 0.711,0.711 1.152,1.691 1.152,2.77l0 8.1zm-0.588 0.531c0.136,-0.136 0.22,-0.323 0.22,-0.531l0 -8.1c0,-0.977 -0.4,-1.866 -1.044,-2.51 -0.644,-0.645 -1.533,-1.045 -2.51,-1.045l-8.101 0c-0.207,0 -0.395,0.084 -0.531,0.22 -0.135,0.136 -0.219,0.324 -0.219,0.531 0,0.208 0.084,0.395 0.219,0.531 0.136,0.136 0.324,0.22 0.531,0.22l8.101 0c0.564,0 1.078,0.231 1.45,0.603 0.372,0.372 0.602,0.885 0.602,1.45l0 8.1c0,0.208 0.085,0.395 0.22,0.531 0.136,0.136 0.324,0.22 0.531,0.22 0.208,0 0.396,-0.084 0.531,-0.22z"/>
 </g>
</svg>
