<?xml version="1.0" encoding="UTF-8"?>
<!DOCTYPE svg PUBLIC "-//W3C//DTD SVG 1.1//EN" "http://www.w3.org/Graphics/SVG/1.1/DTD/svg11.dtd">
<!-- Creator: CorelDRAW 2020 (64 Bit) -->
<svg xmlns="http://www.w3.org/2000/svg" xml:space="preserve" width="134px" height="134px" version="1.1" style="shape-rendering:geometricPrecision; text-rendering:geometricPrecision; image-rendering:optimizeQuality; fill-rule:evenodd; clip-rule:evenodd"
viewBox="0 0 12.095 12.095"
 xmlns:xlink="http://www.w3.org/1999/xlink"
 xmlns:xodm="http://www.corel.com/coreldraw/odm/2003">
 <defs>
  <style type="text/css">
   <![CDATA[
    .fil1 {fill:#D6A75C}
    .fil0 {fill:url(#id0)}
   ]]>
  </style>
  <linearGradient id="id0" gradientUnits="userSpaceOnUse" x1="5.61" y1="9.668" x2="5.61" y2="2.3">
   <stop offset="0" style="stop-opacity:1; stop-color:#171717"/>
   <stop offset="1" style="stop-opacity:1; stop-color:#666666"/>
  </linearGradient>
 </defs>
 <g id="Camada_x0020_1">
  <metadata id="CorelCorpID_0Corel-Layer"/>
  <path class="fil0" d="M0.422 5.025l1.734 -1.735 0 3.017c0,1.012 0.828,1.841 1.841,1.841l3.987 0c0.254,0 0.46,-0.206 0.46,-0.461 0,-0.254 -0.206,-0.46 -0.46,-0.46l-3.987 0c-0.506,0 -0.921,-0.414 -0.921,-0.92l0 -3.937 1.949 -1.948c0.562,-0.563 1.483,-0.563 2.045,0l4.603 4.603c0.563,0.562 0.563,1.483 0,2.045l-1.734 1.735 0 -3.017c0,-1.012 -0.828,-1.84 -1.84,-1.84l-3.988 0c-0.254,0 -0.46,0.206 -0.46,0.46 0,0.254 0.206,0.46 0.46,0.46l3.988 0c0.506,0 0.92,0.414 0.92,0.92l0 3.937 -1.949 1.948c-0.562,0.563 -1.483,0.563 -2.045,0l-4.603 -4.603c-0.563,-0.562 -0.563,-1.483 0,-2.045z"/>
  <g id="_1854753759584">
   <path class="fil1" d="M7.984 8.148c0.254,0 0.46,-0.206 0.46,-0.461 0,-0.254 -0.206,-0.46 -0.46,-0.46l-3.987 0c-0.506,0 -0.921,-0.414 -0.921,-0.92l0 -3.987c0,-0.255 -0.206,-0.46 -0.46,-0.46 -0.254,0 -0.46,0.205 -0.46,0.46l0 3.987c0,1.012 0.828,1.841 1.841,1.841l3.987 0z"/>
   <path class="fil1" d="M9.939 9.776c0,0.254 -0.206,0.46 -0.46,0.46 -0.254,0 -0.46,-0.206 -0.46,-0.46l0 -3.988c0,-0.506 -0.414,-0.92 -0.92,-0.92l-3.988 0c-0.254,0 -0.46,-0.206 -0.46,-0.46 0,-0.254 0.206,-0.46 0.46,-0.46l3.988 0c1.012,0 1.84,0.828 1.84,1.84l0 3.988z"/>
  </g>
 </g>
</svg>
