<?xml version="1.0" encoding="UTF-8"?>
<!DOCTYPE svg PUBLIC "-//W3C//DTD SVG 1.1//EN" "http://www.w3.org/Graphics/SVG/1.1/DTD/svg11.dtd">
<!-- Creator: CorelDRAW 2020 (64 Bit) -->
<svg xmlns="http://www.w3.org/2000/svg" xml:space="preserve" width="134px" height="134px" version="1.1" style="shape-rendering:geometricPrecision; text-rendering:geometricPrecision; image-rendering:optimizeQuality; fill-rule:evenodd; clip-rule:evenodd"
viewBox="0 0 40.542 40.542"
 xmlns:xlink="http://www.w3.org/1999/xlink"
 xmlns:xodm="http://www.corel.com/coreldraw/odm/2003">
 <defs>
  <style type="text/css">
   <![CDATA[
    .fil1 {fill:#D6A75C}
    .fil0 {fill:#E9E4D8}
   ]]>
  </style>
 </defs>
 <g id="Camada_x0020_1">
  <metadata id="CorelCorpID_0Corel-Layer"/>
  <path class="fil0" d="M1.414 16.843l5.813 -5.814 0 10.112c0.001,3.393 2.776,6.169 6.169,6.169l13.366 0c0.852,0 1.542,-0.691 1.542,-1.543 0,-0.851 -0.69,-1.542 -1.542,-1.542l-13.366 0c-1.696,0 -3.084,-1.387 -3.084,-3.084l0 -13.196 6.53 -6.531c1.886,-1.885 4.972,-1.885 6.857,0l15.428 15.429c1.886,1.885 1.886,4.971 0,6.856l-5.813 5.814 0 -10.112c0,-3.393 -2.776,-6.169 -6.169,-6.169l-13.365 0c-0.852,0 -1.543,0.691 -1.543,1.542 0,0.852 0.691,1.542 1.542,1.542l13.366 0c1.697,0 3.085,1.388 3.085,3.085l0 13.196 -6.531 6.53c-1.885,1.886 -4.971,1.886 -6.857,0l-15.428 -15.428c-1.885,-1.885 -1.885,-4.971 0,-6.856z"/>
  <g id="_1854761782208">
   <path class="fil1" d="M26.762 27.31c0.852,0 1.542,-0.691 1.542,-1.543 0,-0.851 -0.69,-1.542 -1.542,-1.542l-13.366 0c-1.696,0 -3.084,-1.388 -3.084,-3.084l0 -13.366c0,-0.852 -0.691,-1.542 -1.542,-1.542 -0.852,0 -1.543,0.69 -1.543,1.542l0 13.366c0,3.393 2.776,6.169 6.169,6.169l13.366 0z"/>
   <path class="fil1" d="M33.314 32.767c0,0.851 -0.69,1.542 -1.542,1.542 -0.852,0 -1.542,-0.691 -1.542,-1.542l0 -13.366c0,-1.697 -1.388,-3.085 -3.085,-3.085l-13.366 0c-0.851,0 -1.542,-0.69 -1.542,-1.542 0,-0.852 0.691,-1.542 1.542,-1.542l13.366 0c3.393,0 6.169,2.776 6.169,6.169l0 13.366z"/>
  </g>
 </g>
</svg>
