<?xml version="1.0" encoding="UTF-8"?>
<!DOCTYPE svg PUBLIC "-//W3C//DTD SVG 1.1//EN" "http://www.w3.org/Graphics/SVG/1.1/DTD/svg11.dtd">
<!-- Creator: CorelDRAW 2020 (64 Bit) -->
<svg xmlns="http://www.w3.org/2000/svg" xml:space="preserve" width="388px" height="134px" version="1.1" style="shape-rendering:geometricPrecision; text-rendering:geometricPrecision; image-rendering:optimizeQuality; fill-rule:evenodd; clip-rule:evenodd"
viewBox="0 0 340.284 117.39"
 xmlns:xlink="http://www.w3.org/1999/xlink"
 xmlns:xodm="http://www.corel.com/coreldraw/odm/2003">
 <defs>
  <style type="text/css">
   <![CDATA[
    .fil2 {fill:#D6A75C}
    .fil0 {fill:#E9E4D8}
    .fil1 {fill:#D6A75C;fill-rule:nonzero}
   ]]>
  </style>
 </defs>
 <g id="Camada_x0020_1">
  <metadata id="CorelCorpID_0Corel-Layer"/>
  <path class="fil0" d="M4.095 48.768l16.832 -16.833 0 29.279c0.001,9.824 8.038,17.862 17.862,17.862l38.701 0c2.466,0 4.466,-1.999 4.466,-4.466 0,-2.466 -2,-4.465 -4.466,-4.465l-38.7 0c-4.913,0 -8.932,-4.018 -8.932,-8.931l0 -38.21 18.91 -18.909c5.46,-5.46 14.394,-5.46 19.853,0l44.673 44.673c5.46,5.46 5.46,14.394 0,19.854l-16.832 16.832 0 -29.278c0,-9.825 -8.038,-17.862 -17.862,-17.862l-38.701 0c-2.466,0 -4.466,1.999 -4.466,4.465 0,2.466 2,4.466 4.466,4.466l38.701 0c4.912,0 8.931,4.018 8.931,8.931l0 38.209 -18.91 18.909c-5.459,5.461 -14.393,5.461 -19.853,0l-44.673 -44.672c-5.46,-5.46 -5.46,-14.394 0,-19.854z"/>
  <path class="fil1" d="M125.991 49.702c0,-3.437 1.243,-6.17 3.729,-8.198 2.486,-2.029 5.959,-3.044 10.419,-3.044 3.729,0 6.708,0.676 8.938,2.029 2.23,1.353 4.058,3.491 5.484,6.416 0.329,0.622 0.128,1.097 -0.603,1.426l-1.7 0.768c-0.366,0.146 -0.64,0.192 -0.823,0.136 -0.182,-0.054 -0.383,-0.265 -0.603,-0.63 -1.097,-2.194 -2.477,-3.802 -4.14,-4.826 -1.663,-1.024 -3.848,-1.535 -6.553,-1.535 -3.254,0 -5.749,0.621 -7.486,1.864 -1.736,1.243 -2.604,3.035 -2.604,5.374 0,1.097 0.219,2.048 0.658,2.852 0.439,0.804 0.978,1.444 1.618,1.919 0.639,0.475 1.517,0.887 2.632,1.234 1.115,0.347 2.111,0.594 2.988,0.74 0.878,0.146 2.029,0.293 3.455,0.439 1.609,0.183 2.943,0.375 4.003,0.576 1.06,0.201 2.267,0.548 3.62,1.042 1.352,0.493 2.43,1.096 3.235,1.809 0.804,0.713 1.49,1.691 2.056,2.934 0.567,1.243 0.85,2.705 0.85,4.387 0,3.619 -1.279,6.443 -3.839,8.472 -2.558,2.029 -6.251,3.044 -11.077,3.044 -3.911,0 -7.046,-0.768 -9.404,-2.303 -2.358,-1.536 -4.177,-3.912 -5.456,-7.129 -0.22,-0.695 0,-1.188 0.658,-1.481l1.7 -0.603c0.621,-0.219 1.096,0 1.425,0.658 2.011,4.752 5.703,7.129 11.077,7.129 7.276,0 10.913,-2.559 10.913,-7.677 0,-1.097 -0.21,-2.038 -0.63,-2.824 -0.421,-0.786 -0.924,-1.417 -1.508,-1.892 -0.585,-0.476 -1.399,-0.878 -2.441,-1.207 -1.042,-0.329 -1.983,-0.557 -2.824,-0.685 -0.841,-0.128 -1.937,-0.265 -3.29,-0.411 -1.718,-0.183 -3.107,-0.366 -4.168,-0.549 -1.06,-0.183 -2.321,-0.521 -3.783,-1.014 -1.463,-0.494 -2.614,-1.097 -3.455,-1.81 -0.841,-0.713 -1.563,-1.7 -2.166,-2.961 -0.603,-1.261 -0.905,-2.751 -0.905,-4.469z"/>
  <path id="1" class="fil1" d="M157.953 40.325c0,-0.403 0.082,-0.686 0.246,-0.85 0.165,-0.165 0.448,-0.247 0.85,-0.247l1.81 0c0.402,0 0.676,0.082 0.823,0.247 0.146,0.164 0.219,0.447 0.219,0.85l0 36.74c0,0.402 -0.073,0.686 -0.219,0.85 -0.147,0.165 -0.421,0.247 -0.823,0.247l-1.81 0c-0.402,0 -0.685,-0.082 -0.85,-0.247 -0.164,-0.164 -0.246,-0.448 -0.246,-0.85l0 -36.74z"/>
  <path id="2" class="fil1" d="M179.331 39.228c5.045,0 8.957,1.288 11.735,3.866 2.778,2.577 4.168,6.114 4.168,10.611l0 9.98c0,4.497 -1.39,8.034 -4.168,10.611 -2.778,2.577 -6.69,3.866 -11.735,3.866l-11.571 0c-0.402,0 -0.685,-0.082 -0.85,-0.247 -0.164,-0.164 -0.246,-0.448 -0.246,-0.85l0 -36.74c0,-0.403 0.082,-0.686 0.246,-0.85 0.165,-0.165 0.448,-0.247 0.85,-0.247l11.571 0zm11.9 14.477c0,-3.437 -1.024,-6.087 -3.071,-7.952 -2.048,-1.864 -4.991,-2.796 -8.829,-2.796l-8.719 0 0 31.476 8.719 0c3.838,0 6.781,-0.932 8.829,-2.796 2.047,-1.865 3.071,-4.516 3.071,-7.952l0 -9.98z"/>
  <path id="3" class="fil1" d="M221.986 39.228c0.695,0 1.042,0.365 1.042,1.097l0 1.535c0,0.731 -0.347,1.097 -1.042,1.097l-19.357 0 0 13.599 16.889 0c0.695,0 1.042,0.366 1.042,1.097l0 1.535c0,0.732 -0.347,1.097 -1.042,1.097l-16.889 0 0 14.148 20.07 0c0.695,0 1.042,0.366 1.042,1.097l0 1.535c0,0.732 -0.347,1.097 -1.042,1.097l-22.922 0c-0.402,0 -0.686,-0.082 -0.85,-0.247 -0.164,-0.164 -0.247,-0.448 -0.247,-0.85l0 -36.74c0,-0.403 0.083,-0.686 0.247,-0.85 0.164,-0.165 0.448,-0.247 0.85,-0.247l22.209 0z"/>
  <path id="4" class="fil1" d="M226.31 40.325c0,-0.403 0.082,-0.686 0.247,-0.85 0.164,-0.165 0.448,-0.247 0.85,-0.247l1.81 0c0.401,0 0.676,0.082 0.822,0.247 0.146,0.164 0.22,0.447 0.22,0.85l0 36.74c0,0.402 -0.074,0.686 -0.22,0.85 -0.146,0.165 -0.421,0.247 -0.822,0.247l-1.81 0c-0.402,0 -0.686,-0.082 -0.85,-0.247 -0.165,-0.164 -0.247,-0.448 -0.247,-0.85l0 -36.74z"/>
  <path id="5" class="fil1" d="M237.927 39.228c0.402,0 0.677,0.082 0.823,0.247 0.146,0.164 0.219,0.447 0.219,0.85l0 34.108 18.59 0c0.695,0 1.042,0.366 1.042,1.097l0 1.535c0,0.732 -0.347,1.097 -1.042,1.097l-21.441 0c-0.403,0 -0.686,-0.082 -0.85,-0.247 -0.165,-0.164 -0.247,-0.448 -0.247,-0.85l0 -36.74c0,-0.403 0.082,-0.686 0.247,-0.85 0.164,-0.165 0.447,-0.247 0.85,-0.247l1.809 0z"/>
  <path id="6" class="fil1" d="M276.689 39.228c0.402,0 0.686,0.082 0.85,0.247 0.165,0.164 0.247,0.447 0.247,0.85l0 1.535c0,0.402 -0.082,0.686 -0.247,0.85 -0.164,0.165 -0.448,0.247 -0.85,0.247l-11.077 0 0 34.108c0,0.402 -0.082,0.686 -0.247,0.85 -0.164,0.165 -0.448,0.247 -0.85,0.247l-1.809 0c-0.403,0 -0.686,-0.082 -0.85,-0.247 -0.165,-0.164 -0.247,-0.448 -0.247,-0.85l0 -34.108 -11.077 0c-0.402,0 -0.686,-0.082 -0.85,-0.247 -0.165,-0.164 -0.247,-0.448 -0.247,-0.85l0 -1.535c0,-0.403 0.082,-0.686 0.247,-0.85 0.164,-0.165 0.448,-0.247 0.85,-0.247l26.157 0z"/>
  <path id="7" class="fil1" d="M277.229 52.224c0,-4.314 1.298,-7.686 3.894,-10.117 2.596,-2.431 6.324,-3.647 11.187,-3.647 4.825,0 8.536,1.216 11.132,3.647 2.595,2.431 3.893,5.803 3.893,10.117l0 12.942c0,4.313 -1.298,7.686 -3.893,10.117 -2.596,2.431 -6.307,3.647 -11.132,3.647 -4.863,0 -8.591,-1.216 -11.187,-3.647 -2.596,-2.431 -3.894,-5.804 -3.894,-10.117l0 -12.942zm26.158 0c0,-3.217 -0.951,-5.703 -2.852,-7.458 -1.901,-1.755 -4.643,-2.632 -8.225,-2.632 -3.583,0 -6.334,0.877 -8.253,2.632 -1.92,1.755 -2.879,4.241 -2.879,7.458l0 12.942c0,3.217 0.959,5.703 2.879,7.458 1.919,1.754 4.67,2.632 8.253,2.632 3.582,0 6.324,-0.878 8.225,-2.632 1.901,-1.755 2.852,-4.241 2.852,-7.458l0 -12.942z"/>
  <path id="8" class="fil1" d="M339.187 39.228c0.402,0 0.686,0.082 0.85,0.247 0.165,0.164 0.247,0.447 0.247,0.85l0 36.74c0,0.402 -0.082,0.686 -0.247,0.85 -0.164,0.165 -0.448,0.247 -0.85,0.247l-1.755 0c-0.548,0 -0.932,-0.201 -1.151,-0.603l-17.493 -25.115c-0.768,-1.134 -1.645,-2.66 -2.632,-4.579 -0.987,-1.92 -1.572,-3.007 -1.755,-3.263l-0.219 0c0,0.292 0.1,1.59 0.301,3.893 0.201,2.303 0.302,4.241 0.302,5.813l0 22.757c0,0.732 -0.347,1.097 -1.042,1.097l-1.7 0c-0.402,0 -0.686,-0.082 -0.85,-0.247 -0.164,-0.164 -0.247,-0.448 -0.247,-0.85l0 -36.74c0,-0.403 0.083,-0.686 0.247,-0.85 0.164,-0.165 0.448,-0.247 0.85,-0.247l1.755 0c0.512,0 0.895,0.183 1.151,0.548l17.055 24.622c0.84,1.206 1.8,2.797 2.878,4.771 1.079,1.974 1.746,3.144 2.002,3.509l0.165 0c0,-0.365 -0.11,-1.745 -0.329,-4.14 -0.22,-2.394 -0.33,-4.414 -0.33,-6.059l0 -22.209c0,-0.695 0.366,-1.042 1.097,-1.042l1.7 0z"/>
  <g id="_1854746283184">
   <path class="fil2" d="M77.49 79.076c2.466,0 4.466,-2 4.466,-4.466 0,-2.466 -2,-4.465 -4.466,-4.465l-38.701 0c-4.912,0 -8.931,-4.019 -8.931,-8.931l0 -38.701c0,-2.466 -1.999,-4.465 -4.465,-4.465 -2.467,0 -4.466,1.999 -4.466,4.465l0 38.701c0,9.824 8.038,17.862 17.862,17.862l38.701 0z"/>
   <path class="fil2" d="M96.462 94.876c0,2.466 -2,4.466 -4.466,4.466 -2.466,0 -4.465,-2 -4.465,-4.466l0 -38.701c0,-4.912 -4.019,-8.931 -8.931,-8.931l-38.702 0c-2.466,0 -4.465,-1.999 -4.465,-4.465 0,-2.466 1.999,-4.466 4.465,-4.466l38.702 0c9.824,0 17.862,8.038 17.862,17.862l0 38.701z"/>
  </g>
 </g>
</svg>
