<?xml version="1.0" encoding="UTF-8"?>
<!DOCTYPE svg PUBLIC "-//W3C//DTD SVG 1.1//EN" "http://www.w3.org/Graphics/SVG/1.1/DTD/svg11.dtd">
<!-- Creator: CorelDRAW 2020 (64 Bit) -->
<svg xmlns="http://www.w3.org/2000/svg" xml:space="preserve" width="110px" height="38px" version="1.1" style="shape-rendering:geometricPrecision; text-rendering:geometricPrecision; image-rendering:optimizeQuality; fill-rule:evenodd; clip-rule:evenodd"
viewBox="0 0 12.102 4.175"
 xmlns:xlink="http://www.w3.org/1999/xlink"
 xmlns:xodm="http://www.corel.com/coreldraw/odm/2003">
 <defs>
  <style type="text/css">
   <![CDATA[
    .fil0 {fill:#14213D}
    .fil1 {fill:#14213D;fill-rule:nonzero}
   ]]>
  </style>
 </defs>
 <g id="Camada_x0020_1">
  <metadata id="CorelCorpID_0Corel-Layer"/>
  <g id="_2271463600672">
   <path class="fil0" d="M0.146 1.734l0.598 -0.598 0 1.041c0,0.35 0.286,0.635 0.636,0.635l1.376 0c0.088,0 0.159,-0.071 0.159,-0.158 0,-0.088 -0.071,-0.159 -0.159,-0.159l-1.376 0c-0.175,0 -0.318,-0.143 -0.318,-0.318l0 -1.359 0.672 -0.672c0.195,-0.195 0.512,-0.195 0.707,0l1.588 1.588c0.195,0.195 0.195,0.512 0,0.707l-0.598 0.598 0 -1.041c0,-0.35 -0.286,-0.635 -0.636,-0.635l-1.376 0c-0.088,0 -0.159,0.071 -0.159,0.158 0,0.088 0.071,0.159 0.159,0.159l1.376 0c0.175,0 0.318,0.143 0.318,0.318l0 1.359 -0.672 0.672c-0.195,0.195 -0.512,0.195 -0.707,0l-1.588 -1.588c-0.195,-0.195 -0.195,-0.512 0,-0.707z"/>
   <g>
    <path class="fil1" d="M4.481 1.768c0,-0.123 0.044,-0.22 0.133,-0.292 0.088,-0.072 0.211,-0.108 0.37,-0.108 0.133,0 0.239,0.024 0.318,0.072 0.079,0.048 0.144,0.124 0.195,0.228 0.012,0.022 0.005,0.039 -0.021,0.051l-0.061 0.027c-0.013,0.005 -0.023,0.007 -0.029,0.005 -0.007,-0.002 -0.014,-0.009 -0.022,-0.022 -0.039,-0.078 -0.088,-0.136 -0.147,-0.172 -0.059,-0.036 -0.137,-0.055 -0.233,-0.055 -0.116,0 -0.204,0.023 -0.266,0.067 -0.062,0.044 -0.093,0.108 -0.093,0.191 0,0.039 0.008,0.073 0.024,0.101 0.015,0.029 0.034,0.052 0.057,0.069 0.023,0.016 0.054,0.031 0.094,0.043 0.039,0.013 0.075,0.022 0.106,0.027 0.031,0.005 0.072,0.01 0.123,0.015 0.057,0.007 0.105,0.014 0.142,0.021 0.038,0.007 0.081,0.019 0.129,0.037 0.048,0.017 0.086,0.039 0.115,0.064 0.029,0.026 0.053,0.06 0.073,0.105 0.02,0.044 0.03,0.096 0.03,0.156 0,0.128 -0.045,0.229 -0.136,0.301 -0.091,0.072 -0.222,0.108 -0.394,0.108 -0.139,0 -0.251,-0.027 -0.334,-0.082 -0.084,-0.054 -0.149,-0.139 -0.195,-0.253 -0.007,-0.025 0,-0.043 0.024,-0.053l0.06 -0.021c0.022,-0.008 0.039,0 0.051,0.023 0.072,0.169 0.203,0.254 0.394,0.254 0.259,0 0.388,-0.091 0.388,-0.273 0,-0.04 -0.007,-0.073 -0.022,-0.101 -0.015,-0.028 -0.033,-0.05 -0.054,-0.067 -0.021,-0.017 -0.05,-0.031 -0.087,-0.043 -0.037,-0.012 -0.07,-0.02 -0.1,-0.024 -0.03,-0.005 -0.069,-0.01 -0.117,-0.015 -0.061,-0.007 -0.111,-0.013 -0.148,-0.02 -0.038,-0.006 -0.083,-0.018 -0.135,-0.036 -0.052,-0.017 -0.093,-0.039 -0.123,-0.064 -0.03,-0.025 -0.055,-0.061 -0.077,-0.105 -0.021,-0.045 -0.032,-0.098 -0.032,-0.159z"/>
    <path id="1" class="fil1" d="M5.618 1.434c0,-0.014 0.002,-0.024 0.008,-0.03 0.006,-0.006 0.016,-0.009 0.031,-0.009l0.064 0c0.014,0 0.024,0.003 0.029,0.009 0.005,0.006 0.008,0.016 0.008,0.03l0 1.307c0,0.014 -0.003,0.024 -0.008,0.03 -0.005,0.006 -0.015,0.009 -0.029,0.009l-0.064 0c-0.015,0 -0.025,-0.003 -0.031,-0.009 -0.006,-0.006 -0.008,-0.016 -0.008,-0.03l0 -1.307z"/>
    <path id="2" class="fil1" d="M6.378 1.395c0.179,0 0.318,0.046 0.417,0.138 0.099,0.091 0.148,0.217 0.148,0.377l0 0.355c0,0.16 -0.049,0.286 -0.148,0.377 -0.099,0.092 -0.238,0.138 -0.417,0.138l-0.412 0c-0.014,0 -0.024,-0.003 -0.03,-0.009 -0.006,-0.006 -0.009,-0.016 -0.009,-0.03l0 -1.307c0,-0.014 0.003,-0.024 0.009,-0.03 0.006,-0.006 0.016,-0.009 0.03,-0.009l0.412 0zm0.423 0.515c0,-0.122 -0.036,-0.216 -0.109,-0.283 -0.073,-0.066 -0.178,-0.099 -0.314,-0.099l-0.31 0 0 1.119 0.31 0c0.136,0 0.241,-0.033 0.314,-0.099 0.073,-0.067 0.109,-0.161 0.109,-0.283l0 -0.355z"/>
    <path id="3" class="fil1" d="M7.895 1.395c0.025,0 0.037,0.013 0.037,0.039l0 0.055c0,0.026 -0.012,0.039 -0.037,0.039l-0.689 0 0 0.483 0.601 0c0.025,0 0.037,0.013 0.037,0.039l0 0.055c0,0.026 -0.012,0.039 -0.037,0.039l-0.601 0 0 0.503 0.714 0c0.025,0 0.037,0.013 0.037,0.039l0 0.055c0,0.026 -0.012,0.039 -0.037,0.039l-0.815 0c-0.014,0 -0.024,-0.003 -0.03,-0.009 -0.006,-0.006 -0.009,-0.016 -0.009,-0.03l0 -1.307c0,-0.014 0.003,-0.024 0.009,-0.03 0.006,-0.006 0.016,-0.009 0.03,-0.009l0.79 0z"/>
    <path id="4" class="fil1" d="M8.049 1.434c0,-0.014 0.003,-0.024 0.008,-0.03 0.006,-0.006 0.016,-0.009 0.031,-0.009l0.064 0c0.014,0 0.024,0.003 0.029,0.009 0.005,0.006 0.008,0.016 0.008,0.03l0 1.307c0,0.014 -0.003,0.024 -0.008,0.03 -0.005,0.006 -0.015,0.009 -0.029,0.009l-0.064 0c-0.015,0 -0.025,-0.003 -0.031,-0.009 -0.005,-0.006 -0.008,-0.016 -0.008,-0.03l0 -1.307z"/>
    <path id="5" class="fil1" d="M8.462 1.395c0.014,0 0.024,0.003 0.029,0.009 0.005,0.006 0.008,0.016 0.008,0.03l0 1.213 0.661 0c0.025,0 0.037,0.013 0.037,0.039l0 0.055c0,0.026 -0.012,0.039 -0.037,0.039l-0.763 0c-0.014,0 -0.024,-0.003 -0.03,-0.009 -0.006,-0.006 -0.009,-0.016 -0.009,-0.03l0 -1.307c0,-0.014 0.003,-0.024 0.009,-0.03 0.006,-0.006 0.016,-0.009 0.03,-0.009l0.065 0z"/>
    <path id="6" class="fil1" d="M9.84 1.395c0.015,0 0.025,0.003 0.031,0.009 0.005,0.006 0.008,0.016 0.008,0.03l0 0.055c0,0.014 -0.003,0.024 -0.008,0.03 -0.006,0.006 -0.016,0.009 -0.031,0.009l-0.394 0 0 1.213c0,0.014 -0.003,0.024 -0.008,0.03 -0.006,0.006 -0.016,0.009 -0.031,0.009l-0.064 0c-0.014,0 -0.024,-0.003 -0.03,-0.009 -0.006,-0.006 -0.009,-0.016 -0.009,-0.03l0 -1.213 -0.394 0c-0.014,0 -0.024,-0.003 -0.03,-0.009 -0.006,-0.006 -0.009,-0.016 -0.009,-0.03l0 -0.055c0,-0.014 0.003,-0.024 0.009,-0.03 0.006,-0.006 0.016,-0.009 0.03,-0.009l0.93 0z"/>
    <path id="7" class="fil1" d="M9.86 1.857c0,-0.153 0.046,-0.273 0.138,-0.359 0.092,-0.087 0.225,-0.13 0.398,-0.13 0.171,0 0.303,0.043 0.396,0.13 0.092,0.086 0.138,0.206 0.138,0.359l0 0.461c0,0.153 -0.046,0.273 -0.138,0.359 -0.093,0.087 -0.225,0.13 -0.396,0.13 -0.173,0 -0.306,-0.043 -0.398,-0.13 -0.092,-0.086 -0.138,-0.206 -0.138,-0.359l0 -0.461zm0.93 0c0,-0.114 -0.034,-0.202 -0.102,-0.265 -0.067,-0.062 -0.165,-0.093 -0.292,-0.093 -0.128,0 -0.225,0.031 -0.294,0.093 -0.068,0.063 -0.102,0.151 -0.102,0.265l0 0.461c0,0.114 0.034,0.202 0.102,0.265 0.069,0.062 0.166,0.094 0.294,0.094 0.127,0 0.225,-0.032 0.292,-0.094 0.068,-0.063 0.102,-0.151 0.102,-0.265l0 -0.461z"/>
    <path id="8" class="fil1" d="M12.063 1.395c0.014,0 0.024,0.003 0.03,0.009 0.006,0.006 0.009,0.016 0.009,0.03l0 1.307c0,0.014 -0.003,0.024 -0.009,0.03 -0.006,0.006 -0.016,0.009 -0.03,0.009l-0.062 0c-0.02,0 -0.034,-0.007 -0.041,-0.022l-0.623 -0.893c-0.027,-0.04 -0.058,-0.094 -0.093,-0.163 -0.035,-0.068 -0.056,-0.107 -0.063,-0.116l-0.007 0c0,0.011 0.003,0.057 0.01,0.139 0.008,0.082 0.011,0.151 0.011,0.207l0 0.809c0,0.026 -0.012,0.039 -0.037,0.039l-0.06 0c-0.015,0 -0.025,-0.003 -0.031,-0.009 -0.005,-0.006 -0.008,-0.016 -0.008,-0.03l0 -1.307c0,-0.014 0.003,-0.024 0.008,-0.03 0.006,-0.006 0.016,-0.009 0.031,-0.009l0.062 0c0.018,0 0.032,0.007 0.041,0.02l0.606 0.875c0.03,0.043 0.065,0.1 0.103,0.17 0.038,0.07 0.062,0.112 0.071,0.125l0.006 0c0,-0.013 -0.004,-0.062 -0.012,-0.147 -0.008,-0.086 -0.011,-0.157 -0.011,-0.216l0 -0.79c0,-0.024 0.012,-0.037 0.039,-0.037l0.06 0z"/>
   </g>
  </g>
 </g>
</svg>
