<?xml version="1.0" encoding="UTF-8"?>
<!DOCTYPE svg PUBLIC "-//W3C//DTD SVG 1.1//EN" "http://www.w3.org/Graphics/SVG/1.1/DTD/svg11.dtd">
<!-- Creator: CorelDRAW 2020 (64 Bit) -->
<svg xmlns="http://www.w3.org/2000/svg" xml:space="preserve" width="289px" height="100px" version="1.1" style="shape-rendering:geometricPrecision; text-rendering:geometricPrecision; image-rendering:optimizeQuality; fill-rule:evenodd; clip-rule:evenodd"
viewBox="0 0 105.77 36.488"
 xmlns:xlink="http://www.w3.org/1999/xlink"
 xmlns:xodm="http://www.corel.com/coreldraw/odm/2003">
 <defs>
  <style type="text/css">
   <![CDATA[
    .fil2 {fill:none}
    .fil0 {fill:#E9E4D8}
    .fil1 {fill:#E9E4D8;fill-rule:nonzero}
   ]]>
  </style>
 </defs>
 <g id="Camada_x0020_1">
  <metadata id="CorelCorpID_0Corel-Layer"/>
  <g id="_2271564242496">
   <path class="fil0" d="M1.273 15.158l5.232 -5.232 0 9.101c0,3.054 2.498,5.552 5.552,5.552l12.029 0c0.767,0 1.388,-0.621 1.388,-1.388 0,-0.766 -0.621,-1.388 -1.388,-1.388l-12.029 0c-1.527,0 -2.776,-1.249 -2.776,-2.776l0 -11.877 5.877 -5.877c1.698,-1.697 4.475,-1.697 6.172,0l13.885 13.885c1.697,1.698 1.697,4.475 0,6.172l-5.232 5.232 0 -9.101c0,-3.054 -2.498,-5.552 -5.552,-5.552l-12.029 0c-0.767,0 -1.388,0.621 -1.388,1.388 0,0.767 0.621,1.388 1.388,1.388l12.029 0c1.527,0 2.776,1.249 2.776,2.776l0 11.877 -5.877 5.877c-1.697,1.697 -4.474,1.697 -6.172,0l-13.885 -13.885c-1.697,-1.697 -1.697,-4.474 0,-6.172z"/>
   <g>
    <path class="fil1" d="M39.162 15.449c0,-1.068 0.386,-1.918 1.159,-2.548 0.772,-0.631 1.852,-0.946 3.238,-0.946 1.159,0 2.085,0.21 2.779,0.63 0.693,0.421 1.261,1.086 1.704,1.995 0.102,0.193 0.04,0.34 -0.188,0.443l-0.528 0.238c-0.114,0.046 -0.199,0.06 -0.256,0.043 -0.056,-0.017 -0.119,-0.082 -0.187,-0.196 -0.341,-0.682 -0.77,-1.182 -1.287,-1.5 -0.517,-0.318 -1.196,-0.477 -2.037,-0.477 -1.011,0 -1.787,0.193 -2.326,0.579 -0.54,0.387 -0.81,0.943 -0.81,1.671 0,0.341 0.068,0.636 0.205,0.886 0.136,0.25 0.303,0.449 0.502,0.597 0.199,0.147 0.472,0.275 0.818,0.383 0.347,0.108 0.657,0.185 0.929,0.23 0.273,0.046 0.631,0.091 1.074,0.136 0.5,0.057 0.915,0.117 1.245,0.179 0.329,0.063 0.704,0.171 1.124,0.324 0.421,0.154 0.756,0.341 1.006,0.563 0.25,0.221 0.463,0.525 0.639,0.912 0.176,0.386 0.265,0.841 0.265,1.363 0,1.125 -0.398,2.003 -1.194,2.634 -0.795,0.63 -1.943,0.946 -3.443,0.946 -1.216,0 -2.19,-0.239 -2.923,-0.716 -0.733,-0.477 -1.298,-1.216 -1.696,-2.216 -0.068,-0.216 0,-0.369 0.205,-0.46l0.528 -0.188c0.193,-0.068 0.341,0 0.443,0.205 0.625,1.477 1.773,2.216 3.443,2.216 2.262,0 3.392,-0.796 3.392,-2.387 0,-0.34 -0.065,-0.633 -0.196,-0.877 -0.131,-0.245 -0.287,-0.441 -0.469,-0.589 -0.181,-0.147 -0.434,-0.272 -0.758,-0.374 -0.324,-0.103 -0.616,-0.174 -0.878,-0.213 -0.261,-0.04 -0.602,-0.083 -1.023,-0.128 -0.534,-0.057 -0.965,-0.114 -1.295,-0.171 -0.329,-0.057 -0.722,-0.162 -1.176,-0.315 -0.455,-0.153 -0.812,-0.341 -1.074,-0.563 -0.261,-0.221 -0.486,-0.528 -0.673,-0.92 -0.188,-0.392 -0.281,-0.855 -0.281,-1.389z"/>
    <path id="1" class="fil1" d="M49.096 12.534c0,-0.125 0.026,-0.213 0.077,-0.264 0.051,-0.051 0.139,-0.077 0.264,-0.077l0.563 0c0.125,0 0.21,0.026 0.255,0.077 0.046,0.051 0.068,0.139 0.068,0.264l0 11.42c0,0.125 -0.022,0.213 -0.068,0.264 -0.045,0.051 -0.13,0.077 -0.255,0.077l-0.563 0c-0.125,0 -0.213,-0.026 -0.264,-0.077 -0.051,-0.051 -0.077,-0.139 -0.077,-0.264l0 -11.42z"/>
    <path id="2" class="fil1" d="M55.741 12.193c1.568,0 2.784,0.401 3.648,1.202 0.863,0.801 1.295,1.9 1.295,3.298l0 3.102c0,1.398 -0.432,2.497 -1.295,3.298 -0.864,0.802 -2.08,1.202 -3.648,1.202l-3.596 0c-0.125,0 -0.213,-0.026 -0.264,-0.077 -0.051,-0.051 -0.077,-0.139 -0.077,-0.264l0 -11.42c0,-0.125 0.026,-0.213 0.077,-0.264 0.051,-0.051 0.139,-0.077 0.264,-0.077l3.596 0zm3.699 4.5c0,-1.068 -0.318,-1.892 -0.955,-2.471 -0.636,-0.58 -1.551,-0.87 -2.744,-0.87l-2.71 0 0 9.784 2.71 0c1.193,0 2.108,-0.29 2.744,-0.869 0.637,-0.58 0.955,-1.404 0.955,-2.472l0 -3.102z"/>
    <path id="3" class="fil1" d="M69 12.193c0.215,0 0.323,0.114 0.323,0.341l0 0.477c0,0.228 -0.108,0.341 -0.323,0.341l-6.017 0 0 4.227 5.25 0c0.216,0 0.323,0.114 0.323,0.341l0 0.478c0,0.227 -0.107,0.34 -0.323,0.34l-5.25 0 0 4.398 6.238 0c0.216,0 0.324,0.114 0.324,0.341l0 0.477c0,0.228 -0.108,0.341 -0.324,0.341l-7.125 0c-0.124,0 -0.213,-0.026 -0.264,-0.077 -0.051,-0.051 -0.076,-0.139 -0.076,-0.264l0 -11.42c0,-0.125 0.025,-0.213 0.076,-0.264 0.051,-0.051 0.14,-0.077 0.264,-0.077l6.904 0z"/>
    <path id="4" class="fil1" d="M70.344 12.534c0,-0.125 0.025,-0.213 0.076,-0.264 0.052,-0.051 0.14,-0.077 0.265,-0.077l0.562 0c0.125,0 0.21,0.026 0.256,0.077 0.045,0.051 0.068,0.139 0.068,0.264l0 11.42c0,0.125 -0.023,0.213 -0.068,0.264 -0.046,0.051 -0.131,0.077 -0.256,0.077l-0.562 0c-0.125,0 -0.213,-0.026 -0.265,-0.077 -0.051,-0.051 -0.076,-0.139 -0.076,-0.264l0 -11.42z"/>
    <path id="5" class="fil1" d="M73.955 12.193c0.125,0 0.21,0.026 0.255,0.077 0.046,0.051 0.068,0.139 0.068,0.264l0 10.602 5.779 0c0.216,0 0.324,0.114 0.324,0.341l0 0.477c0,0.228 -0.108,0.341 -0.324,0.341l-6.665 0c-0.125,0 -0.213,-0.026 -0.264,-0.077 -0.051,-0.051 -0.077,-0.139 -0.077,-0.264l0 -11.42c0,-0.125 0.026,-0.213 0.077,-0.264 0.051,-0.051 0.139,-0.077 0.264,-0.077l0.563 0z"/>
    <path id="6" class="fil1" d="M86.003 12.193c0.125,0 0.213,0.026 0.264,0.077 0.051,0.051 0.077,0.139 0.077,0.264l0 0.477c0,0.125 -0.026,0.214 -0.077,0.265 -0.051,0.051 -0.139,0.076 -0.264,0.076l-3.443 0 0 10.602c0,0.125 -0.026,0.213 -0.077,0.264 -0.051,0.051 -0.139,0.077 -0.264,0.077l-0.563 0c-0.124,0 -0.213,-0.026 -0.264,-0.077 -0.051,-0.051 -0.076,-0.139 -0.076,-0.264l0 -10.602 -3.443 0c-0.125,0 -0.213,-0.025 -0.265,-0.076 -0.051,-0.051 -0.076,-0.14 -0.076,-0.265l0 -0.477c0,-0.125 0.025,-0.213 0.076,-0.264 0.052,-0.051 0.14,-0.077 0.265,-0.077l8.13 0z"/>
    <path id="7" class="fil1" d="M86.171 16.233c0,-1.341 0.403,-2.389 1.21,-3.145 0.807,-0.756 1.966,-1.133 3.477,-1.133 1.5,0 2.654,0.377 3.46,1.133 0.807,0.756 1.211,1.804 1.211,3.145l0 4.022c0,1.341 -0.404,2.39 -1.211,3.145 -0.806,0.756 -1.96,1.134 -3.46,1.134 -1.511,0 -2.67,-0.378 -3.477,-1.134 -0.807,-0.755 -1.21,-1.804 -1.21,-3.145l0 -4.022zm8.13 0c0,-1 -0.295,-1.773 -0.886,-2.318 -0.591,-0.546 -1.443,-0.818 -2.557,-0.818 -1.113,0 -1.968,0.272 -2.565,0.818 -0.596,0.545 -0.895,1.318 -0.895,2.318l0 4.022c0,1 0.299,1.773 0.895,2.319 0.597,0.545 1.452,0.818 2.565,0.818 1.114,0 1.966,-0.273 2.557,-0.818 0.591,-0.546 0.886,-1.319 0.886,-2.319l0 -4.022z"/>
    <path id="8" class="fil1" d="M105.429 12.193c0.125,0 0.213,0.026 0.264,0.077 0.051,0.051 0.077,0.139 0.077,0.264l0 11.42c0,0.125 -0.026,0.213 -0.077,0.264 -0.051,0.051 -0.139,0.077 -0.264,0.077l-0.545 0c-0.171,0 -0.29,-0.062 -0.358,-0.187l-5.437 -7.807c-0.239,-0.352 -0.512,-0.827 -0.819,-1.423 -0.306,-0.597 -0.488,-0.935 -0.545,-1.014l-0.068 0c0,0.091 0.031,0.494 0.093,1.21 0.063,0.716 0.094,1.318 0.094,1.807l0 7.073c0,0.228 -0.108,0.341 -0.324,0.341l-0.528 0c-0.125,0 -0.213,-0.026 -0.264,-0.077 -0.051,-0.051 -0.077,-0.139 -0.077,-0.264l0 -11.42c0,-0.125 0.026,-0.213 0.077,-0.264 0.051,-0.051 0.139,-0.077 0.264,-0.077l0.545 0c0.16,0 0.279,0.057 0.358,0.171l5.301 7.653c0.262,0.375 0.56,0.869 0.895,1.483 0.335,0.613 0.543,0.977 0.622,1.091l0.051 0c0,-0.114 -0.034,-0.543 -0.102,-1.287 -0.068,-0.745 -0.102,-1.372 -0.102,-1.884l0 -6.903c0,-0.216 0.114,-0.324 0.341,-0.324l0.528 0z"/>
    <g>
     <path class="fil2" d="M24.086 24.579c0.767,0 1.388,-0.621 1.388,-1.388 0,-0.766 -0.621,-1.388 -1.388,-1.388l-12.029 0c-1.527,0 -2.776,-1.249 -2.776,-2.776l0 -12.029c0,-0.767 -0.622,-1.388 -1.388,-1.388 -0.767,0 -1.388,0.621 -1.388,1.388l0 12.029c0,3.054 2.498,5.552 5.552,5.552l12.029 0z"/>
     <path class="fil2" d="M29.983 29.49c0,0.767 -0.621,1.388 -1.388,1.388 -0.766,0 -1.388,-0.621 -1.388,-1.388l0 -12.029c0,-1.527 -1.249,-2.776 -2.776,-2.776l-12.029 0c-0.767,0 -1.388,-0.622 -1.388,-1.388 0,-0.767 0.621,-1.388 1.388,-1.388l12.029 0c3.054,0 5.552,2.498 5.552,5.552l0 12.029z"/>
    </g>
   </g>
  </g>
 </g>
</svg>
