<?xml version="1.0" encoding="UTF-8"?>
<!DOCTYPE svg PUBLIC "-//W3C//DTD SVG 1.1//EN" "http://www.w3.org/Graphics/SVG/1.1/DTD/svg11.dtd">
<!-- Creator: CorelDRAW 2020 (64 Bit) -->
<svg xmlns="http://www.w3.org/2000/svg" xml:space="preserve" width="388px" height="134px" version="1.1" style="shape-rendering:geometricPrecision; text-rendering:geometricPrecision; image-rendering:optimizeQuality; fill-rule:evenodd; clip-rule:evenodd"
viewBox="0 0 101.52 35.022"
 xmlns:xlink="http://www.w3.org/1999/xlink"
 xmlns:xodm="http://www.corel.com/coreldraw/odm/2003">
 <defs>
  <style type="text/css">
   <![CDATA[
    .fil2 {fill:none}
    .fil0 {fill:#D6A75C}
    .fil1 {fill:#D6A75C;fill-rule:nonzero}
   ]]>
  </style>
 </defs>
 <g id="Camada_x0020_1">
  <metadata id="CorelCorpID_0Corel-Layer"/>
  <path class="fil0" d="M1.222 14.549l5.021 -5.021 0 8.735c0.001,2.931 2.399,5.329 5.329,5.329l11.547 0c0.735,0 1.332,-0.597 1.332,-1.333 0,-0.735 -0.597,-1.332 -1.332,-1.332l-11.547 0c-1.465,0 -2.664,-1.199 -2.664,-2.664l0 -11.4 5.641 -5.641c1.629,-1.629 4.295,-1.629 5.924,0l13.327 13.327c1.629,1.629 1.629,4.295 0,5.924l-5.022 5.021 0 -8.735c0,-2.93 -2.398,-5.328 -5.329,-5.328l-11.545 0c-0.736,-0.001 -1.333,0.596 -1.333,1.332 0,0.735 0.597,1.332 1.332,1.332l11.547 0c1.465,0 2.664,1.199 2.664,2.664l0 11.4 -5.641 5.641c-1.629,1.629 -4.295,1.629 -5.924,0l-13.327 -13.327c-1.629,-1.629 -1.629,-4.295 0,-5.924z"/>
  <path class="fil1" d="M37.588 14.828c0,-1.025 0.371,-1.84 1.113,-2.446 0.741,-0.605 1.777,-0.908 3.108,-0.908 1.112,0 2.001,0.202 2.667,0.606 0.665,0.403 1.21,1.041 1.636,1.914 0.098,0.185 0.038,0.327 -0.18,0.425l-0.507 0.229c-0.11,0.044 -0.191,0.057 -0.246,0.041 -0.054,-0.016 -0.114,-0.079 -0.18,-0.188 -0.327,-0.655 -0.739,-1.134 -1.235,-1.44 -0.496,-0.305 -1.148,-0.458 -1.955,-0.458 -0.971,0 -1.715,0.186 -2.233,0.556 -0.518,0.371 -0.777,0.906 -0.777,1.604 0,0.327 0.065,0.61 0.196,0.85 0.131,0.24 0.292,0.431 0.483,0.573 0.19,0.142 0.452,0.264 0.785,0.368 0.333,0.104 0.63,0.177 0.891,0.221 0.262,0.044 0.606,0.087 1.031,0.131 0.48,0.054 0.878,0.112 1.194,0.172 0.317,0.06 0.677,0.163 1.08,0.31 0.404,0.148 0.726,0.328 0.966,0.54 0.239,0.213 0.444,0.505 0.613,0.876 0.169,0.37 0.254,0.807 0.254,1.308 0,1.08 -0.382,1.923 -1.146,2.528 -0.763,0.605 -1.865,0.908 -3.304,0.908 -1.167,0 -2.103,-0.229 -2.806,-0.687 -0.704,-0.458 -1.246,-1.167 -1.628,-2.127 -0.065,-0.207 0,-0.354 0.196,-0.442l0.508 -0.18c0.185,-0.065 0.327,0 0.425,0.197 0.6,1.418 1.701,2.127 3.305,2.127 2.17,0 3.255,-0.764 3.255,-2.291 0,-0.327 -0.062,-0.608 -0.188,-0.842 -0.125,-0.235 -0.275,-0.423 -0.45,-0.565 -0.174,-0.142 -0.417,-0.262 -0.728,-0.36 -0.311,-0.098 -0.591,-0.166 -0.842,-0.204 -0.251,-0.038 -0.578,-0.079 -0.982,-0.123 -0.512,-0.055 -0.927,-0.109 -1.243,-0.164 -0.317,-0.054 -0.693,-0.155 -1.129,-0.302 -0.436,-0.148 -0.78,-0.327 -1.031,-0.54 -0.251,-0.213 -0.466,-0.507 -0.646,-0.884 -0.18,-0.376 -0.27,-0.82 -0.27,-1.333z"/>
  <path id="1" class="fil1" d="M47.124 12.031c0,-0.12 0.024,-0.205 0.073,-0.254 0.049,-0.049 0.134,-0.074 0.254,-0.074l0.54 0c0.12,0 0.201,0.025 0.245,0.074 0.044,0.049 0.065,0.134 0.065,0.254l0 10.961c0,0.12 -0.021,0.204 -0.065,0.253 -0.044,0.049 -0.125,0.074 -0.245,0.074l-0.54 0c-0.12,0 -0.205,-0.025 -0.254,-0.074 -0.049,-0.049 -0.073,-0.133 -0.073,-0.253l0 -10.961z"/>
  <path id="2" class="fil1" d="M53.501 11.703c1.506,0 2.673,0.385 3.502,1.154 0.828,0.769 1.243,1.824 1.243,3.165l0 2.978c0,1.341 -0.415,2.397 -1.243,3.166 -0.829,0.768 -1.996,1.153 -3.502,1.153l-3.452 0c-0.12,0 -0.204,-0.025 -0.253,-0.074 -0.049,-0.049 -0.074,-0.133 -0.074,-0.253l0 -10.961c0,-0.12 0.025,-0.205 0.074,-0.254 0.049,-0.049 0.133,-0.074 0.253,-0.074l3.452 0zm3.551 4.319c0,-1.025 -0.306,-1.816 -0.917,-2.372 -0.61,-0.556 -1.488,-0.834 -2.634,-0.834l-2.601 0 0 9.391 2.601 0c1.146,0 2.024,-0.279 2.634,-0.835 0.611,-0.556 0.917,-1.347 0.917,-2.372l0 -2.978z"/>
  <path id="3" class="fil1" d="M66.227 11.703c0.207,0 0.311,0.109 0.311,0.328l0 0.458c0,0.218 -0.104,0.327 -0.311,0.327l-5.775 0 0 4.057 5.039 0c0.207,0 0.311,0.109 0.311,0.327l0 0.458c0,0.218 -0.104,0.328 -0.311,0.328l-5.039 0 0 4.221 5.988 0c0.207,0 0.311,0.109 0.311,0.327l0 0.458c0,0.218 -0.104,0.327 -0.311,0.327l-6.839 0c-0.12,0 -0.204,-0.025 -0.253,-0.074 -0.049,-0.049 -0.074,-0.133 -0.074,-0.253l0 -10.961c0,-0.12 0.025,-0.205 0.074,-0.254 0.049,-0.049 0.133,-0.074 0.253,-0.074l6.626 0z"/>
  <path id="4" class="fil1" d="M67.517 12.031c0,-0.12 0.025,-0.205 0.074,-0.254 0.049,-0.049 0.133,-0.074 0.253,-0.074l0.54 0c0.12,0 0.202,0.025 0.246,0.074 0.043,0.049 0.065,0.134 0.065,0.254l0 10.961c0,0.12 -0.022,0.204 -0.065,0.253 -0.044,0.049 -0.126,0.074 -0.246,0.074l-0.54 0c-0.12,0 -0.204,-0.025 -0.253,-0.074 -0.049,-0.049 -0.074,-0.133 -0.074,-0.253l0 -10.961z"/>
  <path id="5" class="fil1" d="M70.983 11.703c0.12,0 0.202,0.025 0.246,0.074 0.043,0.049 0.065,0.134 0.065,0.254l0 10.176 5.546 0c0.207,0 0.311,0.109 0.311,0.327l0 0.458c0,0.218 -0.104,0.327 -0.311,0.327l-6.397 0c-0.12,0 -0.204,-0.025 -0.253,-0.074 -0.049,-0.049 -0.074,-0.133 -0.074,-0.253l0 -10.961c0,-0.12 0.025,-0.205 0.074,-0.254 0.049,-0.049 0.133,-0.074 0.253,-0.074l0.54 0z"/>
  <path id="6" class="fil1" d="M82.547 11.703c0.12,0 0.205,0.025 0.254,0.074 0.049,0.049 0.073,0.134 0.073,0.254l0 0.458c0,0.12 -0.024,0.204 -0.073,0.253 -0.049,0.049 -0.134,0.074 -0.254,0.074l-3.304 0 0 10.176c0,0.12 -0.025,0.204 -0.074,0.253 -0.049,0.049 -0.134,0.074 -0.254,0.074l-0.54 0c-0.12,0 -0.204,-0.025 -0.253,-0.074 -0.049,-0.049 -0.074,-0.133 -0.074,-0.253l0 -10.176 -3.304 0c-0.12,0 -0.205,-0.025 -0.254,-0.074 -0.049,-0.049 -0.074,-0.133 -0.074,-0.253l0 -0.458c0,-0.12 0.025,-0.205 0.074,-0.254 0.049,-0.049 0.134,-0.074 0.254,-0.074l7.803 0z"/>
  <path id="7" class="fil1" d="M82.708 15.581c0,-1.287 0.388,-2.293 1.162,-3.019 0.774,-0.725 1.887,-1.088 3.338,-1.088 1.439,0 2.546,0.363 3.321,1.088 0.774,0.726 1.161,1.732 1.161,3.019l0 3.861c0,1.287 -0.387,2.293 -1.161,3.018 -0.775,0.725 -1.882,1.088 -3.321,1.088 -1.451,0 -2.564,-0.363 -3.338,-1.088 -0.774,-0.725 -1.162,-1.731 -1.162,-3.018l0 -3.861zm7.804 0c0,-0.96 -0.283,-1.702 -0.85,-2.225 -0.568,-0.524 -1.386,-0.786 -2.454,-0.786 -1.069,0 -1.89,0.262 -2.463,0.786 -0.572,0.523 -0.859,1.265 -0.859,2.225l0 3.861c0,0.959 0.287,1.701 0.859,2.225 0.573,0.523 1.394,0.785 2.463,0.785 1.068,0 1.886,-0.262 2.454,-0.785 0.567,-0.524 0.85,-1.266 0.85,-2.225l0 -3.861z"/>
  <path id="8" class="fil1" d="M101.193 11.703c0.12,0 0.205,0.025 0.254,0.074 0.049,0.049 0.073,0.134 0.073,0.254l0 10.961c0,0.12 -0.024,0.204 -0.073,0.253 -0.049,0.049 -0.134,0.074 -0.254,0.074l-0.524 0c-0.163,0 -0.278,-0.06 -0.343,-0.18l-5.219 -7.493c-0.229,-0.338 -0.491,-0.793 -0.785,-1.366 -0.295,-0.573 -0.469,-0.897 -0.524,-0.973l-0.065 0c0,0.087 0.03,0.474 0.09,1.161 0.06,0.687 0.09,1.265 0.09,1.734l0 6.79c0,0.218 -0.104,0.327 -0.311,0.327l-0.507 0c-0.12,0 -0.205,-0.025 -0.254,-0.074 -0.049,-0.049 -0.073,-0.133 -0.073,-0.253l0 -10.961c0,-0.12 0.024,-0.205 0.073,-0.254 0.049,-0.049 0.134,-0.074 0.254,-0.074l0.523 0c0.153,0 0.267,0.055 0.344,0.164l5.088 7.346c0.251,0.359 0.537,0.834 0.859,1.423 0.321,0.589 0.521,0.938 0.597,1.047l0.049 0c0,-0.109 -0.033,-0.521 -0.098,-1.235 -0.066,-0.715 -0.098,-1.317 -0.098,-1.808l0 -6.626c0,-0.207 0.109,-0.311 0.327,-0.311l0.507 0z"/>
  <g id="_1854753728336">
   <path class="fil2" d="M23.118 23.592c0.736,0 1.333,-0.597 1.333,-1.333 0,-0.735 -0.597,-1.332 -1.333,-1.332l-11.546 0c-1.465,0 -2.664,-1.199 -2.664,-2.664l0 -11.547c0,-0.735 -0.597,-1.332 -1.332,-1.332 -0.736,0 -1.333,0.597 -1.333,1.332l0 11.547c0,2.931 2.398,5.329 5.329,5.329l11.546 0z"/>
   <path class="fil2" d="M28.778 28.306c0,0.735 -0.596,1.332 -1.332,1.332 -0.736,0 -1.332,-0.597 -1.332,-1.332l0 -11.547c0,-1.465 -1.199,-2.664 -2.665,-2.664l-11.546 0c-0.735,0 -1.332,-0.597 -1.332,-1.332 0,-0.736 0.597,-1.333 1.332,-1.333l11.546 0c2.931,0 5.329,2.398 5.329,5.329l0 11.547z"/>
  </g>
 </g>
</svg>
